<svg xmlns="http://www.w3.org/2000/svg" width="128" height="128" viewBox="0 0 128 128"><defs><style>.cls-1{fill:none;stroke:#231f20;stroke-miterlimit:10;}.cls-2{fill:#221f1f;}</style></defs><title>Free Icons</title><g id="Layer_17" data-name="Layer 17"><path class="cls-1" d="M40.71,107.26a1.17,1.17,0,0,1,1.45-.77C45.18,107.43,39.73,110.42,40.71,107.26Z"/><path class="cls-1" d="M34.15,113.79a1.15,1.15,0,0,1,1.44-.76C38.61,114,33.17,117,34.15,113.79Z"/><path class="cls-1" d="M21.34,116a1.15,1.15,0,0,1,1.44-.76C25.8,116.19,20.36,119.19,21.34,116Z"/><path class="cls-2" d="M12.28,48c4.46-1.69,8.93-3.16,13.4-4.63L39.11,39c3.26-1,6.51-2.15,9.78-3.16C60.43,32.29,72,28.7,83.39,24.82c5.08-1.72,10.14-3.54,15.1-5.44,3.19-1.22,6.35-2.52,9.48-3.86a97.85,97.85,0,0,0,9.15-4.44c1.73-1.12,1.69-.81.39.51a28.87,28.87,0,0,1-7.76,4.87c-6.4,2.92-12.93,5.41-19.5,7.83S77,29,70.33,31.12c-8,2.6-16.28,5.47-24.45,8.17-9,3-18,5.8-26.94,8.91l-4.1,1.47-2,.78-.93.38c-.17.07-.33.13-.49.21l-.49.22c-.09.17.11.32.21.45a4.59,4.59,0,0,0,.39.37l.22.18.4.32c1.12.86,2.31,1.66,3.52,2.43,1.84,1.17,3.75,2.2,5.7,3.22l5.82,3.19,11.61,6.31.58.3.78.44c.06,0,.16.06.17.14l.06.21.13.44a3.43,3.43,0,0,1,.09.44l.07.34.46,2.51.89,5c.6,3.3,1.2,6.59,1.79,9.9l.81,4.34c.93,5.44,1.14,7.15,1,8.4a6.51,6.51,0,0,1-.06.85c-.08.31-.36,0-.83-1a31.66,31.66,0,0,1-1.52-4.44c-.82-2.92-1.48-5.92-2.1-8.94s-1.2-6.09-1.73-9.18l-.8-4.64-.41-2.3-.06-.3h0l-.38-.2-8.37-4.5L16.85,58.72a57.26,57.26,0,0,1-6.14-4l-.38-.29L9.82,54a11.28,11.28,0,0,1-1.23-1.15,3.38,3.38,0,0,1-.73-1.22A2,2,0,0,1,7.77,51c0-.2,0-.48.18-.6l1-.86.5-.43a5.82,5.82,0,0,1,.75-.37l1.2-.49.84-.34Z"/><path class="cls-2" d="M68.32,84.55c1.53.83,3,1.7,4.54,2.57.55.32,1.13.58,1.65.93l5.58,3.71c.82.54,1.67,1,2.51,1.54a18.11,18.11,0,0,1,3.15,2c.29.29.13.46-.32.56a2.54,2.54,0,0,1-1.82-.18C81.35,94.54,79.11,93.35,77,92a44.06,44.06,0,0,0-4.14-2.2c-1.52-.82-3-1.66-4.55-2.45-.94-.48-1.88-1-2.84-1.41A46.13,46.13,0,0,0,61,84c-1.16-.45-2.37-.63-3.53-1a6.73,6.73,0,0,1-.77-.21c-.92-.38-1.15-.73-1.23-1.24a2.27,2.27,0,0,1-.05-.35c0-.35.48-.55,1.29-.61a17.19,17.19,0,0,1,6.82,1.66c1.64.66,3.23,1.46,4.79,2.26Z"/><path class="cls-2" d="M66,49.14l11.14-7.51,4-2.78L95.5,29.26c2.12-1.42,4.23-2.89,6.3-4.35,2.67-1.87,5.3-3.81,8.12-5.45a2.63,2.63,0,0,1,.5-.24h0c0,.06-.11-.23.36.5h0a.1.1,0,0,1-.08,0,.17.17,0,0,1,0-.1v0h0c0,.07-.14-.08-.08-.11h0a0,0,0,0,1,0,0h0l0,.09a4.38,4.38,0,0,1-.29.47,13.34,13.34,0,0,1-3.11,3.09C101.81,27,96.34,30.74,90.73,34.42,87.37,36.6,84,39,80.61,41.36L69.43,49l-6.87,4.7c-3.46,2.39-7,4.76-10.34,7.18-2.64,1.88-5.16,3.83-7.74,5.74L42.8,67.87c-2.14,1.55-2.89,1.93-3.65,1.85a1.9,1.9,0,0,1-.5-.06c-.43-.16.26-1,1.76-2.27,4.46-3.63,9.39-7.13,14.37-10.6l11.16-7.68Z"/><path class="cls-2" d="M73.88,53.78l8.74-7.37,3.14-2.74L97,34.17c1.65-1.41,3.26-2.89,4.85-4.34,2-1.89,4-3.85,6.2-5.54.71-.51.8-.25.51.51a9,9,0,0,1-2.1,3.14c-4.06,4-8.3,7.73-12.7,11.38-2.64,2.17-5.25,4.59-7.89,6.87L77.11,53.7l-5.38,4.61C69,60.65,66.29,63,63.66,65.37c-2,1.86-3.95,3.78-5.91,5.68l-1.27,1.26c-1.62,1.54-2.21,1.94-2.95,1.87a2.54,2.54,0,0,1-.5-.06c-.46-.15,0-1,1.06-2.29a133.22,133.22,0,0,1,11-10.54c2.88-2.53,5.82-5,8.74-7.54Z"/><path class="cls-2" d="M96.44,70.4c-1.08,3.67-2.12,7.36-3,11.07-.47,1.86-.92,3.71-1.29,5.58l-.3,1.39-.23,1.4-.24,1.39a7.67,7.67,0,0,0-.12,1.07l-.11,1.27-.06.11-.54,1-.07.13,0,.06h0c-.11-.22.24.5-.24-.49h0l-.18,0-.44.13c-.31.31-.89-.17-1.39-.51l-1.34-.9-3.51-2.33C79.15,88.12,75,85.47,70.68,83a83.18,83.18,0,0,0-13.32-6.33c-.51-.17-1-.34-1.54-.49L55,76l-.47-.12c-.12,0-.29-.1-.36,0l-.09.39-.32,1.38Q53,80.82,52.18,84c-.72,2.72-1.46,5.45-2.3,8.16a50.56,50.56,0,0,1-3.09,8c-.94,1.61-1.14,1.09-.85-.38a63,63,0,0,1,1.68-7.23c1.66-5.44,3.14-11,4.47-16.53l.48-2,.12-.51c0-.12.12,0,.19,0l.26.06,1,.21,1,.23.64.17,1.07.31c1.43.44,2.81,1,4.17,1.52A82.28,82.28,0,0,1,69,79.76c6.12,3.37,12.34,7.07,18.23,11l1.1.75.37.26a2.47,2.47,0,0,0,.38.25l0-.46,0-.38.18-1.1c.13-.76.24-1.51.39-2.26.32-1.48.6-3,1-4.44L91.73,79l1.16-4.38C94.2,70,95.57,65.42,97,60.85c2.23-6.93,4.68-13.81,7.29-20.55,2-5.22,4-10.38,6.45-15.39.52-1.11,1-2.2,1.66-3.27l1.42-2.53A19.35,19.35,0,0,1,115,17.47a6.86,6.86,0,0,1,1.53-1.59,4.06,4.06,0,0,1,.59-.38c.5-.18-.3,1.52-1.87,4.41l-1.62,3.32c-.56,1.11-1,2.29-1.53,3.43-1.07,2.27-2,4.65-3,7-1.89,4.77-3.75,9.63-5.45,14.56-1.3,3.65-2.51,7.34-3.7,11s-2.36,7.41-3.45,11.14Z"/><path class="cls-2" d="M55.77,92.08c-.72.79-1.45,1.58-2.19,2.35-.27.28-.51.59-.78.86-1,1-2,1.91-3,2.84l-1.32,1.28a9.31,9.31,0,0,1-1.84,1.46c-.43.25-.51-.88,0-1.51A40.78,40.78,0,0,1,50,96.09,23.25,23.25,0,0,0,51.93,94l2.12-2.38c.43-.49.87-1,1.29-1.48.63-.76,1.28-1.52,1.86-2.32.46-.61.81-1.29,1.24-1.91.09-.13.17-.28.27-.41.37-.5.57-.6.95-.49a2,2,0,0,1,.26.08c.26.11.31.46.13.9a14.8,14.8,0,0,1-2.19,3.67c-.66.85-1.36,1.66-2.06,2.48Z"/><path class="cls-2" d="M19.69,62.38c1.27.83,2.59,1.6,3.92,2.34.49.27,1,.46,1.51.73q2.6,1.42,5.26,2.75c.79.4,1.6.7,2.45,1a6.52,6.52,0,0,1,1.64.91,3.78,3.78,0,0,1,1.19,1.56c.14.39-.26.52-.78.53a4.77,4.77,0,0,1-1.6-.17A11.84,11.84,0,0,0,32,71.6L30.43,71a21.26,21.26,0,0,1-3.11-1.6c-1.21-.75-2.59-1.23-3.86-1.89S20.67,66,19.31,65.19c-.84-.5-1.67-1-2.49-1.53-1.26-.78-2.46-1.67-3.66-2.53-.45-.35-.95-.64-1.42-1A15.59,15.59,0,0,1,10.4,59c-.18-.18-.38-.35-.56-.54-.63-.77-.66-1.16-.34-1.62a3.55,3.55,0,0,1,.23-.31c.3-.29.81-.2,1.31.16.76.54,1.59,1,2.42,1.53s1.61,1.09,2.45,1.63c1.24.82,2.49,1.68,3.81,2.44Z"/><path class="cls-2" d="M47.41,63.3c3.88-2.84,7.82-5.54,11.76-8.24l4.28-3,15.3-10.22c2.25-1.52,4.48-3.1,6.67-4.68,2.81-2,5.56-4.15,8.51-6,.94-.56,1-.25.49.61a12.35,12.35,0,0,1-3.16,3.48c-5.64,4.31-11.47,8.34-17.45,12.25C70.23,49.87,66.63,52.48,63,55c-3.95,2.73-7.9,5.45-11.78,8.25-2.38,1.73-4.78,3.48-7,5.37-.41.36-.81.73-1.17,1.11s-.61.6-.55.94c0,1,.12,2.17.22,3.27.23,2.21.53,4.42.85,6.61.51,3.42,1.19,6.74,1.7,10.13.12.75.25,1.48.34,2.24.34,2.82.21,3.78-.38,4.4a2.61,2.61,0,0,1-.4.41c-.48.25-.84-.83-1.17-2.83-1-6-2.18-12.28-3-18.74-.14-1.21-.28-2.41-.37-3.65l-.07-.94,0-1.08a2.85,2.85,0,0,1,.59-1.63,8.63,8.63,0,0,1,.75-.85,59.55,59.55,0,0,1,5.75-4.72Z"/></g></svg>