<svg xmlns="http://www.w3.org/2000/svg"><svg xmlns="http://www.w3.org/2000/svg" width="306" height="306" fill="none" style="z-index: 2; position: absolute; pointer-events: none;"><path fill="#fff" d="M236.1 278.4c-.7.5-1.5 1-2.2 1.5-.8.5-1.5 1-2.3 1.4-.7.4-1.3.8-2 1.2-.1.1-.2.1-.3.2-2.3 1.4-4.7 2.7-7.1 3.9-.7.4-1.5.8-2.2 1.1 0 0-.1.1-.2.1l-2.4 1.2c-1.6.8-3.3 1.5-4.9 2.2-.8.4-1.7.7-2.5 1-.8.3-1.7.7-2.5 1-.8.3-1.7.7-2.5 1h-.1c-.8.3-1.7.6-2.5.9-1.8.6-3.7 1.2-5.5 1.8-.6.2-1.3.4-1.9.6-1.9.6-3.8 1.1-5.7 1.5-.7.2-1.4.3-2.2.5-1.8.4-3.7.8-5.5 1.2-.4.1-.7.1-1.1.2-.6.1-1.3.2-1.9.3-.9.1-1.7.3-2.6.4-.4.1-.8.1-1.2.2-.5.1-1.1.2-1.7.2-1.6.2-3.3.4-4.9.6-.5.1-1.1.1-1.6.2h-.1c-.7.1-1.4.1-2.1.2-.7.1-1.4.1-2.1.1-.4 0-.9.1-1.3.1-.8 0-1.5.1-2.2.1-1 0-1.9.1-2.9.1h-5c-42.2-.6-80.1-18.5-107.2-46.9 0 0 0-.1-.1-.1-3-2.7-.4-17.1 11.7-26.2 15.2-11.5 51.6-18.7 51.6-18.7s14.1-2.3 66.4 8.6c30.6 6.4 53.9 15.7 66.9 40.9 2.7 5.2 5.4 13.2-4.1 17.4Z"></path><path fill="#000" d="M173.6 219c19.2 3.9 39.7 8.1 55.5 20.8 5.3 4.3 8.8 10.6 11.7 16.7 1.4 3 2.8 6.1 3.9 9.4.6 2.2 1.5 4.7 1 7.3-.1.7-.7 1.6-1.2 2.1-2.3 2.3-4.8 3.7-7.3 5.5-14.7 10.2-31.6 17.4-49.1 21.2-39 8.5-81.2 1.9-115.5-18.6-11.4-6.9-21.9-15.3-30.9-25.2-1-1.2-1-3.2-1-4.5.1-3 .9-5.9 1.9-8.6 2.4-6.2 5.5-12.4 10.8-16.7 3.8-2.6 7.9-4.8 12.1-6.6 13.2-5.6 27.1-9.5 41.4-11.1 1.2-.1 1.4 1.6.2 1.8-13.7 2.8-27.3 7-40 12.7-4.6 2.3-9.5 4.3-13.2 7.9-3.5 3.8-6 8.5-8 13.3-1.3 2.9-2.2 7.5-1.8 9.8 6.3 7.5 13.7 14.1 21.7 19.8 43.8 30.6 110.3 32.6 156.9 7.1 4.2-2.3 8.3-4.9 12.2-7.6 1.9-1.3 3.9-2.4 5.4-3.9.1-.1 0 0 0 .1s-.1.2-.1.2c.1-1.2-.3-2.8-.8-4.4-1.8-5.8-4.7-11.9-7.8-17.2-4.9-7.9-13.2-12.9-21.6-16.9-5.8-2.7-11.9-4.8-18.1-6.8-6.2-2-12.5-3.7-18.8-5.2-1.6-.4-1.1-2.7.5-2.4Z"></path></svg><svg xmlns="http://www.w3.org/2000/svg" width="306" height="343" fill="none" style="z-index: 3; position: absolute; pointer-events: none;"><path fill="#000" d="m256.6 338.6-240.1 1.8s9.9-40.2 21.5-74.7c4.3-12.8 6.2-29.1 16.4-36.8 11.5-8.7 27.7-11.9 38.4-15.7 5.7-2 10-1.9 14-3 0 .5.1.9.1 1.4 0 0 10.8 32.1 38.9 43.5 22.9 9.3 36.5 3.1 38.6-7.2 1.3-6.6-2.8-17.4-4.9-20.9-1.2-1-2-2.5-2.4-4l-.8-3.3c1.9-.4 3.7-.9 5.5-1.5.6-.2 1.8 1.6 2.3 1.4C197 223 223 231.5 235 244.7c14.8 15.8 21.6 93.9 21.6 93.9Z"></path><mask id="Outfit09_svg__a" width="241" height="131" x="16" y="210" maskUnits="userSpaceOnUse" style="mask-type: alpha;"><path fill="#000" d="m256.6 338.6-240.1 1.8s9.9-40.2 21.5-74.7c4.3-12.8 6.2-29.1 16.4-36.8 11.5-8.7 27.7-11.9 38.4-15.7 5.7-2 10-1.9 14-3 0 .5.1.9.1 1.4 0 0 10.8 32.1 38.9 43.5 22.9 9.3 36.5 3.1 38.6-7.2 1.3-6.6-2.8-17.4-4.9-20.9-1.2-1-2-2.5-2.4-4l-.8-3.3c1.9-.4 3.7-.9 5.5-1.5.6-.2 1.8 1.6 2.3 1.4C197 223 223 231.5 235 244.7c14.8 15.8 21.6 93.9 21.6 93.9Z"></path></mask><g fill="#fff" mask="url(#Outfit09_svg__a)"><path d="m120.21 228.069-13.435 13.435 13.435 13.435 13.435-13.435-13.435-13.435ZM172.897 228.038l-13.435 13.435 13.435 13.435 13.435-13.435-13.435-13.435ZM67.594 228.029 54.16 241.464l13.435 13.435 13.435-13.435-13.435-13.435ZM224.809 228.069l-13.435 13.435 13.435 13.435 13.435-13.435-13.435-13.435ZM95.875 279.97 82.44 293.405l13.435 13.435 13.435-13.435-13.435-13.435ZM148.562 279.939l-13.435 13.435 13.435 13.435 13.435-13.435-13.435-13.435ZM200.474 279.97l-13.435 13.435 13.435 13.435 13.435-13.435-13.435-13.435ZM120.219 331.965l-13.435 13.434 13.435 13.435 13.435-13.435-13.435-13.434ZM172.907 331.933l-13.435 13.435 13.435 13.435 13.434-13.435-13.434-13.435ZM67.604 331.924l-13.435 13.435 13.435 13.435 13.435-13.435-13.435-13.435ZM224.819 331.964l-13.435 13.435 13.435 13.435 13.435-13.435-13.435-13.435Z"></path></g><path fill="#000" d="M258.5 340.3c-71.4.7-171.7 2.3-242 2.6-1.4 0-2.6-1.1-2.6-2.5 5.1-21.5 11.3-42.8 17.9-63.9 1.1-3.5 2.2-7 3.4-10.4 2.4-6.9 3.9-14 6.2-21 4.3-13.3 10-19.1 22.6-24.8 8.6-3.9 17.4-6.1 26.1-8.9l2.6-.9c4.3-1.6 9.7-1.8 13.6-2.8 1.4-.3 2.7.5 3.1 1.8.1.1.2 1.7.2 1.9L107 209c1.1 0 2.1.7 2.4 1.7.8 2.3 1.9 4.7 3 7 7.8 15.9 20.3 30.2 37.4 36.1 8.8 3.1 20.1 5.5 28 .1 3.8-2.6 5-7.2 4.2-11.6-.7-4.7-2.3-9.7-4.6-13.9l.5.6c-1.8-1.8-2.6-4.5-2.7-6.9l-.2-2c-.2-.9.2-1.8 1.2-1.9 1.7-.3 3.4-.8 5-1.3.3-.1.9-.3 1.2-.2 1.3.3 1.5 1 2.3 1.5-.1 0-.3-.2-.8 0h.9c6.3 1.6 12.5 3.5 18.6 5.8 12.3 4.7 24.6 10 33.8 19.9 13 16.3 18.9 67.8 21.5 89.7 0 .2.3 3.3.4 3.6l.1.6v.4c0 .7-.3 1.6-.7 2.1Zm-3.8-3.4c-.3.3-.6.7-.6 1.1 0 .2-.1.4 0 .6v-.1c0-.4-.1-1.6-.2-2.1-2.6-24.5-5.7-49.5-12.5-73.2-2.3-7.2-4.8-14.9-10.7-19.7-8.3-7.2-18.5-11.8-28.7-15.7-5.9-2.2-12-4.2-18.2-5.8l1.5-.1c-.8.3-1.4.2-2-.1-.8-.4-1.5-1.1-1.9-1.7.2.1.9.2 1.3.1h.1-.1l-.3.1c-1.8.4-3.7.6-5.5.8l1.2-1.9c.8 2.1 1.3 4.7 3.3 5.8 1.9 2.5 2.8 5.5 3.8 8.4 1.3 4 2.3 8.2 2.1 12.5-.5 12-12.7 17-23.2 16.2-16.6-1.2-32.1-9.5-42.9-21.9-7.2-8.2-12.9-17.6-16.7-27.8l2.4 1.7c-1.4 0-2.5-1-2.6-2.4l-.1-1.3 3.2 2.3c-2 .5-3.9.8-5.7 1-5.4.6-10.2 2.7-15.4 4.2-7 2.1-13.9 4.2-20.3 7.1-6.1 2.9-12.3 6.2-15.7 12.3-3.5 6-5.3 13-7.2 19.8-1.8 7-4.4 14-6.6 21-6.6 20.8-12.4 41.8-17.7 63l-2.5-3.2c69-.5 168.5-1 238.4-1Z"></path><path fill="#000" d="M168.101 251s-6.9 5.2-5.4 10.1c1.5 4.9 14.8 4.1 17.4 0 2.5-4.1-8.8-11.1-12-10.1Z"></path><path fill="#fff" d="m167.9 250.8.2.2v-.2h-.2ZM141.401 246.8c-28.1-11.4-32.9-32.8-32.9-32.8l15.3-6.5c0-.5 4.1-4.7 4-5.1-.1-1.5-10.3-3.1-21.5.6-1.8.6-4 1.8-6 2.9-3.6 2.1-6.5 5.1-8.3 8.8 0 .1-.1.1-.1.2-.2 26.3 26.1 48.4 46.2 55.7 12.2 4.4 25.3-4 29.2-16.3.3-1.1.6-2.1.8-3.2l-.2-.2c-6.5 1.3-15.5.4-26.5-4.1Z"></path><path fill="#000" d="M140.9 248.2c-13.3-5.3-25.5-14.8-31.6-27.9-.9-1.9-1.6-3.8-2.2-6-.2-.7.2-1.4.9-1.7 4-1.7 10.4-4.4 14.3-6.1.2-.1.7-.3.9-.4-.3.1-.9.6-.9 1.3 0 .9.9 1.5 1.5 1.5l-1.5-1.4c0-.3.1-.7.1-.7.4-.9 1.2-1.7 1.8-2.4.4-.4 2-2.4 2.2-2.6-.1.3-.1.9.1 1.1.2.3.1.1-.1 0-3.8-1.3-8.1-1.3-12.1-.9-6.6.5-13.2 3.4-17.2 8.8-1.2 1.5-2.3 3.4-3.1 5 0-.1 0 0 .2-.5.1-1 0-.3.1-.5v.1c.2 21.5 16.5 39.7 34.3 50.2 5.8 3.1 12.2 6.7 19 5.6 9.9-1.4 18.1-10.2 19.1-20.1l.4 1.3-.2-.2 1.4.4c-9.4 2-18.8-.5-27.4-3.9Zm1.1-2.7c8 3.2 17 5.6 25.6 3.9.5-.1 1 .1 1.4.4.4.3.7.9.6 1.5-2.4 10.5-11.1 19.5-21.9 20.9-3.5.5-7.2 0-10.5-1.3-6.5-2.4-12.7-5.7-18.4-9.7-15.3-10.4-29.2-26.8-29.2-46.3v-.1c0-.2-.1.5.1-.5.1-.5.2-.4.2-.5 1.9-3.9 5.3-6.9 9.2-8.7 4.8-2.3 9.8-3.9 15.1-4.8 2.7-.5 15.3-2.2 15.2 2.3-.2.8-.7 1.3-1.1 1.9-.7.9-2.1 2.5-2.8 3.4 0 0-.2.2-.1.2v-.1s.1-.3.1-.5l-1.5-1.4c.2 0 .8.1 1 .5.6.6.5 1.7-.1 2.2-.5.3-.3.2-.4.2h-.1l-.1.1c-.4.2-1.2.5-1.7.7-3.5 1.5-9.8 4.2-13.4 5.7l.9-1.7c.5 1.7 1.2 3.6 2 5.3 6 12.2 17.3 21.3 29.9 26.4Z"></path><path fill="#fff" d="M194.901 243.8c-1.6-13.9-9.1-21.7-12.9-25.7-1.8.6-4.8 1.3-6.7 1.7 0 0 6.5 8.4 4.8 19.8-.8 5.4-4.9 9.5-11.9 11.1 0 .1 0 .1-.1.2 2.6 3 4.8 9.5 13.1 13.4 5.7 2.7 9.3-.4 11.8-6.1 2.1-4.9 2.4-10.5 1.9-14.4Z"></path><path fill="#000" d="M193.701 244c-.9-9.6-5.5-18.5-12.1-25.5l.6.1c-2.2 1-4.3 1.9-6.6 2.7l.9-2.4c3.9 5.6 5.8 12.3 5.3 19.1-.2 7.6-6.3 12.8-13.3 14.2l1.1-1-.1.2-.3-1.5c2.6 3.5 4 6.9 7.2 9.7 2.6 2.2 6.3 5 9.8 4.4 6.8-2 8.2-14 7.5-20Zm2.4-.3c.7 6.4-.4 13-3.9 18.4-4.7 7.4-12.1 4.1-17.5-.5-3.2-2.6-5.4-6.6-7.8-9.7-.8-.9-.2-2.5.9-2.7 2.9-.7 5.7-1.9 7.7-3.9 6.1-6 3-18.4-1.4-24.7l-.2-.8c-.2-.7.2-1.4.8-1.6 2.4-.3 4.8-.4 7.1-.8.2-.1.4 0 .6.1 7.4 7 12.5 16.2 13.7 26.2Z"></path></svg><svg xmlns="http://www.w3.org/2000/svg" width="306" height="306" fill="none" style="z-index: 4; position: absolute; pointer-events: none;"><path fill="#fff" d="M183 245.6c-2.1 10.3-15.7 16.5-38.6 7.2-23.8-9.6-34.1-32.5-36.7-39.3 14.1-26.4 4.3-44.7 4.3-44.7 32.5-2.8 60.9 35.2 60.9 35.2l4.4 18.8c.4 1.6 1.2 3 2.4 4 2.1 3.7 4.6 12.2 3.3 18.8Z"></path><path fill="#000" d="M107.2 213.8c1.9-2.9 3.1-6.3 3.9-9.6 1.5-6.9 2-13.9 2.1-20.9v-2.6c-.3-2.6-1.2-5.3-2.2-7.7-1.3-3.2 3.4-5.2 4.9-2 .2.4.2 1.1.2 1.5.3 13.6.9 31.1-7.7 42.4-.6.6-1.8-.3-1.2-1.1ZM174 203.8c1.5.9 2 2.1 2.2 3.3.6 2.4.4 5 1 7.5.5 2.4 2 4.7 2.4 7.2.5 2.6 2 8.1 2.6 10.8.2.6-.2 1.3-.9 1.4-.4.1-.7 0-1-.2-1.3-1.1-1.9-2.2-2.7-3.6-1.3-2.4-2.2-4.6-3-7.3-.7-2.4-.4-5-1-7.5-.5-2.4-1.9-4.7-2.4-7.2-.3-1.2-.4-2.5.5-4 .6-.6 1.6-.8 2.3-.4Z"></path><path fill="#000" d="M181.2 230.2c-19.1-1-34.7-7-49.9-34.1 12.8 11.3 27.9 15.6 43.8 17.6l2.1 9.2c.4 1.6 2.8 6.3 4 7.3Z"></path><path fill="#000" d="M180.401 226.5c3.4 6.4 5.4 14.4 3.3 21.5-1.6 5-6.2 8.7-11.2 10.1-11.6 3.1-25-1.8-35.3-7.3-12.7-7.1-22.1-19-28.1-32-.4-1 1-1.8 1.6-.8 2.1 4.2 4.5 8.3 7.2 12 2.7 3.8 5.8 7.3 9.3 10.4 10.2 9.2 24 14.9 37.8 14.9 14.2-.4 19.6-7.9 16.3-21.7-.5-2.2-1.3-4.5-2.4-6.4-.6-.8.9-1.7 1.5-.7Z"></path><path fill="#fff" d="M219.1 106.4c1.8 8.4.4 14-.4 37.2-.4 11-2.1 15.1-2.6 27.4-.2 5.6-4.3 13.3-5.8 17.8-2 6.1-4 14.3-8.6 20.2-2.4 3-5.3 4.8-10.1 5.6-1.6.3-3.2-2.1-4.5-1.6-15.7 6.9-32.9 3.7-48.5-9.9-6.8-6-17-20.5-21.3-30.5-.9-2.1-4.9 2.3-10.6-4-7.9-8.6-17.4-25.9-12.7-56.5 7.6-49.6 46.9-55.4 76-49.9 29.3 5.5 44.3 22.1 49.1 44.2Z"></path><path fill="#000" d="M111.7 177.4c-2.3-3.8-5.3-7.2-8-10.8-4-5.5-7-11.8-9-18.3-10.3-32.2-.5-75.9 35.5-86.3 13.2-4 27.2-3.7 40.6-1.2 18 3.1 36 12.3 44.8 29 3.2 6.2 5.6 12.9 6.3 19.8.4 4.6-.4 9.2-.9 13.7-.6 4.5-.7 8.9-.9 13.4-.5 6.7-1.4 13.3-1.7 20-.4 4.5-.1 9-.8 13.5-1.5 9-4.9 17.4-7.7 25.9-2.2 6.5-4.4 14.5-11.1 17.8-4.8 2.9-10.6 3-15.9 2.6-.8 0-1.4-.2-2 0-12.9 2.5-24.9.3-35.7-7.5-5.2-4.1-11.4-8-15.3-13.4-.4-.6.4-1.3.9-.8 3.1 3.1 6.8 5.5 10.6 7.8 3.9 2.4 7.4 4.9 11.3 6.6 8.3 4 17.6 4.6 26.6 3 .5-.1 1.5-.3 2-.2 3.3.2 6.5.5 9.7 0 3.9-.6 7.7-2.3 9.9-5.5 2.3-3.2 3.5-7.6 5.1-11.8 3.1-8.3 6.8-16.5 8.7-25.1.8-3.7 1-9.3 1.3-13.2.7-8.9 2.3-17.7 2.3-26.7.1-4.5.2-9 .1-13.4-1.2-22.4-14.1-41.6-35.4-49.5-23.7-8.9-55.3-8.3-72.7 12.4-8.4 9.9-12.3 22.9-14.1 35.6-3.4 20.2-2.1 40.2 14 54.9l4.7 4.9c1.8 2.6-1.6 5.2-3.2 2.8Z"></path><path fill="#fff" d="M123.5 145.6s-3.1-15-17.7-13.2c-12.6 1.6-17 31.8 11.6 40.2"></path><path fill="#000" d="M116.1 159.5c-2.3-1.3-3.9-3.5-4-6.2.1-2 .4-4.3-.1-6.3-.3-1.9-2.3-2.4-3.8-2.3-1.6.3-2.6 2.3-2.9 3.9 0 .1-.1.4-.1.5-.1.5-.9.5-1.1 0-1.3-3.9 1.6-8.2 5.8-7.7 5.9.4 6.7 6.6 5.6 11.3-.6 2 .2 3.8 1.3 5.5l.2.3c.5.6-.3 1.4-.9 1ZM196.1 135c1.5 7.1 4.3 13.7 7.8 19.9 3.1 7.6-4.9 14.8-12 14.5-.8 0-.9-1.1-.2-1.3 4.5-1.4 8.6-4.4 9.3-9 .3-1.4-.1-2.6-.8-3.8-3.3-6.2-5.3-13.3-4.8-20.3 0-.5.7-.5.7 0Z"></path><path fill="#000" d="M123 145.7c-2.3-5.9-7.3-11.5-14-11.4-.6-.1-1.6.1-2.2.1-1.7.1-3.1.7-4.4 1.9-6.4 6.4-5.3 17.7-.1 24.8 1.8 2.5 4.1 4.7 6.7 6.5 2.6 1.8 5.5 3.2 8.6 4.4.7.2.4 1.3-.3 1.2-6.7-1.4-13.1-4.7-17.5-10.2-6.8-8.2-8.2-21.9-.1-29.9 1.8-1.6 4.3-2.8 6.8-2.8.8 0 2-.2 2.8 0 4.2.2 8.2 2.3 10.8 5.6 2.3 2.8 3.6 6.2 4 9.6 0 .6-.9.8-1.1.2ZM179 212.8c4.6-1 7.3-5.5 6.9-10.1-.1-.7 1-.9 1.1-.2 1.7 5.7-1.4 11.9-6.9 14.1-2.9 1.1-4.1-3.3-1.1-3.8Z"></path></svg><svg xmlns="http://www.w3.org/2000/svg" width="306" height="306" fill="none" style="z-index: 5; position: absolute; pointer-events: none;"><path fill="#000" d="M228.9 85.4C223.7 41 179.6 26 188.1 55.6c0 0-11.6-18.6-37.7-19.6-22.4-.8-8.8 15.1-8.8 15.1s-17.4-10-46.9 5C69 69.2 92.8 80.7 92.8 80.7S73.4 91 73.1 113.2c-.1 5.8 4.7 14.7 16.1 11.8-2.9 22.1 10.6 40.2 16.8 47.6 8 9.6 8.7 16.9 8.7 16.9 4.1-2.3-.7-12.6-.6-18-25-9.6-20.5-37.5-8.3-39.1 12.8-1.6 16.8 9.8 17.5 12.6 2.1-2.5 2.7-12.2 3.9-22.5 3.7-1.2 7-2.5 9.7-4.2 10.6-6.3 15.6-17.2 26.4-23.6 18.9-11.3 23.8 14.2 33.9 4.8 11.7-10.8 20.2-2.2 22.8 11.1 1 4.8 7.1 4.4 8-.4 1.4-7 2-15.4.9-24.8Z"></path></svg><svg xmlns="http://www.w3.org/2000/svg" width="306" height="306" fill="none" style="z-index: 6; position: absolute; pointer-events: none;"><path fill="#000" d="M174.2 122c2.2-.2 3.3-2.8 2.1-4.8-.7-1-1.6-1.9-2.9-2.4-3.8-1.2-16.2 1.5-21.6 7.7-4.8 5.7 12.4.4 22.4-.5ZM200.6 123.6c-1.7-.5-2.2-3-.8-4.6.7-.8 1.7-1.5 2.8-1.7 3.4-.6 11.2 2.5 13.4 8.4 2 5.1-7.3-.1-15.4-2.1ZM158.8 145.2c-2.4-.1-4.2-2.1-4-4.5l.1-2.8c.1-2.4 2.1-4.2 4.5-4 2.4.1 4.2 2.1 4 4.5l-.1 2.8c-.1 2.3-2.1 4.1-4.5 4ZM200.9 146.7c-2.2-.1-3.9-2-3.8-4.2l.1-2.6c.1-2.2 2-3.9 4.2-3.8 2.2.1 3.9 2 3.8 4.2l-.1 2.6c-.1 2.2-2 3.9-4.2 3.8Z"></path><path fill="#000" d="M167.8 139.8c-3.3-2.2-6.9-3.7-10.9-2.9-1.3.2-2.6.6-3.4 1.5-.3.4-1 .3-1-.3.1-2 1.8-3.3 3.4-4.1 3.1-1.6 7.4-1.3 10.2.8 1 .6 4.4 4.3 2.6 5.1-.4.2-.6.1-.9-.1ZM196.399 140.3c0-4.2 5.2-5.7 8.4-4.2 1.8.8 3.1 2.4 3.6 4.3.2.6-.7 1.1-1.1.6-1.7-2-4.6-3-6.9-1.8-.7.4-.8.7-1 1.1 0 2-2.9 1.9-3 0Z"></path></svg><svg xmlns="http://www.w3.org/2000/svg" width="306" height="306" fill="none" style="z-index: 7; position: absolute; pointer-events: none;"><path fill="#000" d="M186.2 179c.1 1.6-1.1 4.4-3.3 6.4-11.3-6.9-16.4-3.3-16.4-3.3-4-6.1-3.1-14.4 6.6-8.1 6.7 4.4 10.9 5.1 13.1 5Z"></path><path fill="#fff" d="M182.799 185.5c-2.4 2.1-6 3.4-10.9 1.4-2.3-.9-4.1-2.7-5.5-4.7.1 0 5.1-3.6 16.4 3.3Z"></path><path stroke="#000" stroke-linecap="round" stroke-linejoin="round" stroke-miterlimit="10" stroke-width="3" d="M188.1 178.7s-4.2 2.3-15-4.6c-12.9-8.3-10.3 9.1-1.2 12.8 9.5 3.9 14.4-4.6 14.3-7.8"></path><path stroke="#000" stroke-linecap="round" stroke-linejoin="round" stroke-miterlimit="10" stroke-width="3" d="M166.5 182.2s5.1-3.6 16.4 3.3"></path></svg><svg xmlns="http://www.w3.org/2000/svg" width="306" height="306" fill="none" style="z-index: 8; position: absolute; pointer-events: none;"><path fill="#000" d="M203.1 195.805c1.5-7.9 2-15.9.7-23.8-.5-3-2.3-8-5.1-5.8-1.1.9-6.8 2.7-7.9 2.8-3.2.3-5.6-.1-7.9-1.9-2.6-2.1-2.6-3-3.2-3.2-10.5-3.5-23.7-7-28 7.1-3.5 11.5-12.3 22.8-18.8 11.6-5-8.5-4.7-24.7-5.4-28.1-1.7-8.4-4.1-12.5-5.5-11.3 0 2.7.9 34.6 1 36.3.7 8.8 1.8 11.6 5.8 17.3 4 5.7 18 21.2 36.2 22.5 18.3 1.3 28.4-.2 38.6-11.9 9.2-10.6 9.5-32.6 9.5-32.6-4.5 13.3-7.6 17.7-10 21Zm-41.2-22.5c5.2-5.7 12.8.9 21 1.5 8.1.6 11.4-4.5 12 4.5.2 2.2.5 5.9.4 8.4v.3c-.3 2.8-1.2 5.9-4 7.6-5.9 3.7-15.4 2.8-21.5 1.6-8.5-1.7-10.3-5.6-10.7-7.4-.6-7.7.7-14.2 2.8-16.5Z"></path></svg><svg xmlns="http://www.w3.org/2000/svg" width="306" height="306" fill="none" style="z-index: 9; position: absolute; pointer-events: none;"><path fill="#fff" d="M165.5 244.3s-15.3-9.3-21.6-7.7c-6.4 1.6-4.2 24.6-.1 28.3 4.1 3.7 21.6-8.1 22.7-9.1 1.1-1 .5-9.9-1-11.5Z"></path><path fill="#000" d="M163.9 246.3c.1.1.2.1 0 0-1.3-1.2-2.7-2.3-4.1-3.2-4.5-2.8-10.2-6.1-15.6-5.3-.4.1-.8.5-1.1.8-1.5 2.1-1.7 4.9-1.9 7.5-.1 3.7.2 7.4.9 11 .5 2.3 1.2 5.3 2.8 6.8.4.3 1.1.3 1.7.2 3.4-.4 6.8-2.4 9.8-4 3-1.7 5.9-3.6 8.6-5.8l-.1.1c-.1.1-.2.4-.2.3V254.4c.2-2.7-.1-5.8-1.2-8.3 0-.3.2.1.4.2Zm3.2-4c1.3 1.3 1.5 2.5 1.8 4.1.4 3.1.7 6.1 0 9.1-.2.6-.5 1.3-1.1 1.9-4.5 3.1-19.9 12.6-24.7 8.8-5-4.1-6.7-26.8-.6-30.3.5-.3 1.2-.5 1.8-.6 4.2-.4 7.8 1.3 11.6 2.6 3.1 1.2 6.4 2.5 9.5 3.7.5.2 1.2.4 1.7.7Z"></path><path fill="#fff" d="M171.301 244.5s6-9.4 12.1-10.6c6-1.2 8.8 24.2 6.1 26.6-2.7 2.3-15.3-2.7-16.7-4.3-1.5-1.6-2.4-8.6-1.5-11.7Z"></path><path fill="#000" d="M168.901 243.4c.1-.2.3-.5.5-.6.2-.1.6-.5.7-.6 3.5-3 6.3-6.7 10.5-8.8.6-.3 1.3-.5 1.9-.7.2-.1.5-.2.7-.2 7.3-1.1 10.3 23.6 7.9 28.3-2.4 4.8-16.2-.5-19.5-2.8-2.9-2.2-3.7-11.2-2.7-14.6Zm4.7 2.1c-.5 2.9-.4 6.5.7 9.3.3.3.7.5 1.1.7 2.5 1.4 5.5 2.5 8.3 3.3 1.6.4 3.2.8 4.6.4.5-1.3.6-4.4.5-6.4-.3-5.2-.9-10.7-3.2-15.5-.5-.9-1.2-2.3-2.2-2.1-4.6 1.3-8.6 5.7-10 10.3v.1c0 .1.1 0 .1-.1 0 .1.1 0 .1 0Z"></path><path fill="#000" d="M177.6 252.5c.3-5.5-3.6-10.2-8.8-10.7-5.2-.5-9.7 3.5-10.2 9-.4 5.6 3.5 10.5 8.8 11 5.4.4 9.9-3.8 10.2-9.3Z"></path><path fill="#fff" d="M158.7 250.7c.1 7.9 8.9 13.4 15 7.9 5.7-5.1 2.9-15.4-4.9-16.9 7.8 0 12.1 9.6 8.2 15.9-5.8 9.8-20.1 4.1-18.3-6.9Z"></path></svg></svg>