<svg xmlns="http://www.w3.org/2000/svg" width="128" height="128" viewBox="0 0 128 128"><defs><style>.cls-1{fill:#231f20;}</style></defs><title>Free Icons</title><g id="Layer_38" data-name="Layer 38"><path class="cls-1" d="M35.57,59.8a13.4,13.4,0,0,1,1.56,1.73c.17.23.36.43.52.67a28.14,28.14,0,0,1,1.51,2.53c.21.39.42.76.63,1.14a14.59,14.59,0,0,1,.74,1.48c.12.32-.5.16-.82-.39-.56-1-1.06-2-1.59-2.95A12.93,12.93,0,0,0,37,62.31a14.12,14.12,0,0,0-1.47-1.7,12.65,12.65,0,0,0-1-.9,8,8,0,0,0-1.82-1,5,5,0,0,0-.76-.21l-.78-.11c-.11,0-.23,0-.34,0-.43,0-.56-.06-.66-.26a.52.52,0,0,1-.06-.13c0-.14.14-.25.49-.27a5.82,5.82,0,0,1,3.07.7,9.22,9.22,0,0,1,2,1.36Z"/><path class="cls-1" d="M101.54,60.27a11.2,11.2,0,0,0-1.06,1.21c-.11.17-.22.33-.32.5a11.26,11.26,0,0,0-1,1.83,4.81,4.81,0,0,0-.3.88,7.53,7.53,0,0,1-.32,1.15c-.09.24-.51-.14-.48-.64a7.15,7.15,0,0,1,.89-2.41c.28-.44.51-.92.81-1.35a10.73,10.73,0,0,1,1.08-1.34,10.59,10.59,0,0,1,.76-.74,10.14,10.14,0,0,1,1.3-1,6,6,0,0,1,1.09-.58l.26-.1c.34,0,.46,0,.55.06l.06.07c0,.07-.08.17-.29.28a15.28,15.28,0,0,0-1.78,1.1,10,10,0,0,0-1.21,1.05Z"/><path class="cls-1" d="M39.6,39.75c.15.58.28,1.17.4,1.77,0,.21.11.42.15.64.12.77.21,1.54.3,2.31l.12,1a4.55,4.55,0,0,1,0,1.33c0,.27-.43-.09-.53-.56-.15-.85-.33-1.7-.4-2.58a12.89,12.89,0,0,0-.34-1.59c-.12-.58-.25-1.17-.39-1.75-.1-.35-.18-.71-.29-1.06-.16-.53-.32-1.07-.53-1.58a8.38,8.38,0,0,0-.59-1.11l-.14-.23c-.16-.29-.15-.42,0-.59a.44.44,0,0,1,.08-.11c.09-.11.27-.05.49.14A6.18,6.18,0,0,1,39.08,38c.21.58.38,1.17.54,1.76Z"/><path class="cls-1" d="M80.79,45.4a16.4,16.4,0,0,1-.43-1.81l-.13-.65c-.11-.79-.16-1.57-.23-2.35,0-.34-.06-.69-.1-1a9.74,9.74,0,0,1-.08-1.32c0-.28.49,0,.55.54.09.89.18,1.77.23,2.67a14.74,14.74,0,0,0,.25,1.62,17.23,17.23,0,0,0,.39,1.76c.11.36.22.71.35,1.05a12.4,12.4,0,0,0,.72,1.52c.21.38.46.74.69,1.11l.15.24c.18.32.19.44.07.58a.39.39,0,0,1-.08.1c-.1.09-.26,0-.41-.2a16.13,16.13,0,0,1-1.25-2.08,12.05,12.05,0,0,1-.7-1.75Z"/><path class="cls-1" d="M18.29,52.29c1.24,2.41,2.62,4.8,4,7.18s2.82,4.76,4,7.31c.89,1.82,1.8,3.63,2.59,5.51a51.08,51.08,0,0,1,3.22,10.32,33.82,33.82,0,0,1,.61,5.4,37.56,37.56,0,0,1-.3,5.42,54.29,54.29,0,0,1-2.07,9.33,46.22,46.22,0,0,1-4.94,11.1c-.67,1.07-.92.73-.77-.39a22.24,22.24,0,0,1,1.5-5.13A60,60,0,0,0,30,97a36.32,36.32,0,0,0,.78-11.89c-.52-4.79-2.41-9.57-4.47-14.11q-.86-1.89-1.77-3.75c-.59-1.24-1.26-2.42-1.94-3.63l-4.14-7.25c-.66-1.18-1.31-2.37-1.92-3.6-.3-.62-.6-1.23-.87-1.88-.13-.33-.25-.66-.36-1a2.11,2.11,0,0,1,0-1.35,3.93,3.93,0,0,1,1.64-2,3.82,3.82,0,0,1,2.2-.46,7.06,7.06,0,0,1,2.06.5,11.44,11.44,0,0,1,3.38,2.26,16.51,16.51,0,0,1,4.27,6.68l.2.61c.05.17.1.35.14.52a.33.33,0,0,0,.21.28l.18.09.29.12,1.24.5a21.68,21.68,0,0,1,2.48,1.19,15.85,15.85,0,0,1,5.82,5.8,12.35,12.35,0,0,1,1.35,3.33,2.78,2.78,0,0,1,0,1.66,3,3,0,0,1-.2.52c-.28.39-.88-.83-1.81-2.89a15.52,15.52,0,0,0-4.26-5.53,15.34,15.34,0,0,0-3-1.89c-.55-.27-1.11-.49-1.7-.75-.3-.12-.61-.24-1-.41a3.33,3.33,0,0,1-.79-.51,1,1,0,0,1-.28-.38,2.71,2.71,0,0,1-.2-.42l-.13-.56c0-.13-.07-.25-.11-.37s-.14-.49-.23-.73a12.43,12.43,0,0,0-.6-1.41,14.24,14.24,0,0,0-1.63-2.63,11.26,11.26,0,0,0-4.19-3.46,3.7,3.7,0,0,0-2.27-.33,1.67,1.67,0,0,0-.79.44,1.42,1.42,0,0,0-.3.37c0,.07-.09.14-.13.22L17,49s0,0,0,0a2.41,2.41,0,0,0,.08.34c.1.29.22.61.36.93.28.64.6,1.3.94,2Z"/><path class="cls-1" d="M115,58.53c-1.38,1.88-2.79,3.73-4,5.63-.3.47-.6,1-.86,1.43a8,8,0,0,0-.65,1.49,23.58,23.58,0,0,0-1,3.21,21.92,21.92,0,0,0-.5,2.41l-.31,2.45a46.05,46.05,0,0,0,.18,8.78,60.66,60.66,0,0,0,1.71,8.71,73.2,73.2,0,0,0,2.46,7.51c1.2,3.15,2.63,6.22,3.67,9.46.33,1,0,1-.74.32a13.19,13.19,0,0,1-2.52-3.82c-2.65-6.4-5-13.06-6-20.1a46.17,46.17,0,0,1-.29-13,30.09,30.09,0,0,1,1.9-7,16.84,16.84,0,0,1,1.76-3.18c.66-1,1.35-1.95,2.05-2.9l2.56-3.49A26.94,26.94,0,0,0,116.71,53a3.31,3.31,0,0,0,.21-.55.36.36,0,0,0,0-.36c-.06-.07-.2-.29-.33-.43s-.31-.28-.47-.39-.37-.2-.56-.28l-.61-.17a5.06,5.06,0,0,0-2.59.36,9.48,9.48,0,0,0-4.19,3.47,7.94,7.94,0,0,0-.55.87,6.07,6.07,0,0,0-.48.91c-.13.31-.3.61-.4.93l-.37,1-.12.24c-.08,0-.11.14-.18.19a1.76,1.76,0,0,1-.43.3l-.61.37c-.4.24-.77.51-1.14.78a16.12,16.12,0,0,0-2,1.85,17.28,17.28,0,0,0-1.28,1.65c-1.46,2.16-1.74,3-2.46,3.29a3.27,3.27,0,0,1-.44.24c-.2.06-.26-.19-.21-.72a6.78,6.78,0,0,1,.78-2.26,16.07,16.07,0,0,1,3-4.09,15.34,15.34,0,0,1,2-1.68c.36-.25.73-.49,1.1-.71l.46-.27s0,0,0,0a2.07,2.07,0,0,1,.13-.37l.2-.55c.14-.37.34-.72.51-1.08a8.94,8.94,0,0,1,.59-1,8.27,8.27,0,0,1,.68-1,11.56,11.56,0,0,1,3.62-3.29,7.57,7.57,0,0,1,3.92-1.07,4.82,4.82,0,0,1,2.16.56,3.68,3.68,0,0,1,1,.66,1.81,1.81,0,0,1,.41.42l.44.57a2.48,2.48,0,0,1,.21.81,3,3,0,0,1-.11.82,5.94,5.94,0,0,1-.4,1,14.22,14.22,0,0,1-.95,1.63c-.66,1-1.35,2-2.05,2.95Z"/><path class="cls-1" d="M30.53,26.13a9.78,9.78,0,0,0-1.59-1.62,6.86,6.86,0,0,0-.88-.56,3.63,3.63,0,0,0-.39-.15l-.16,0a.2.2,0,0,0-.17.15,2.61,2.61,0,0,0-.14.87,12.66,12.66,0,0,0,.21,2.32c.1.58.23,1.16.37,1.75s.3,1.23.42,1.8c.93,4.18,2,8.42,2.76,12.71.35,1.9.66,3.83.9,5.74.26,2.45.55,5.06-.38,7.54-.28.77-.62.49-.86-.23a10.72,10.72,0,0,1-.47-3.17,43.6,43.6,0,0,0-.6-7.22c-.38-2.43-.84-4.87-1.3-7.34-.55-2.94-1.49-6-2.13-9a19.71,19.71,0,0,1-.69-5.25,3.37,3.37,0,0,1,.45-1.6,1.73,1.73,0,0,1,1.7-.83,5.57,5.57,0,0,1,2.67,1.29,19.18,19.18,0,0,1,4,5.08,53.29,53.29,0,0,1,4,8.72,59.22,59.22,0,0,1,2.18,7c.11.53.22,1.06.31,1.6a7.76,7.76,0,0,1,0,2.19,1.65,1.65,0,0,1-.51,1,3.42,3.42,0,0,1-.27.27c-.24.16-.63-.64-.87-2a66.37,66.37,0,0,0-3.83-12.46,48.1,48.1,0,0,0-2.1-4.48c-.37-.74-.82-1.41-1.23-2.12a20,20,0,0,0-1.42-1.93Z"/><path class="cls-1" d="M42.06,26.92a34.08,34.08,0,0,0-1.65-3.87,14.93,14.93,0,0,0-2.28-3.36,2.94,2.94,0,0,0-1.89-1.09.55.55,0,0,0-.4.24,2.44,2.44,0,0,0-.11.92,16.61,16.61,0,0,0,.33,2.62c.34,1.79.8,3.6,1.25,5.42.4,1.61.83,3.23,1.2,4.86a24,24,0,0,1,.52,3.2,8.14,8.14,0,0,1-.32,3.34c-.3.69-.53.42-.7-.17a18,18,0,0,1-.67-2.64c-.66-4-2-8.13-2.84-12.46a29.55,29.55,0,0,1-.62-4.11A4.53,4.53,0,0,1,34,18.59a2.14,2.14,0,0,1,.84-1.33,2.31,2.31,0,0,1,1.43-.51,3,3,0,0,1,1.35.3,6.33,6.33,0,0,1,2,1.54A12.93,12.93,0,0,1,41,20.45a26.74,26.74,0,0,1,2.09,4,44.25,44.25,0,0,1,1.8,5.19,70.2,70.2,0,0,1,1.71,8.07c.33,2.09.69,4.15.9,6.24.06.46.11.91.14,1.38.13,1.73,0,2.28-.53,2.66a1.9,1.9,0,0,1-.35.25c-.38.16-.74-.53-.88-1.76C45.41,42.82,45,39,44.25,35.2A53,53,0,0,0,42,26.94Z"/><path class="cls-1" d="M53.17,38.74c-.12-1-.26-2-.43-2.94s-.35-2-.56-3c-.15-.71-.37-1.4-.54-2.11a31,31,0,0,0-1.08-3.63,9.9,9.9,0,0,0-.77-1.64,2.21,2.21,0,0,0-1-1,.53.53,0,0,0-.4.07,1.92,1.92,0,0,0-.46.4,3.37,3.37,0,0,0-.58,1.33c-.3,1.33-.15,2.81-.67,4.33-.18.48-.42.31-.65-.12a4.56,4.56,0,0,1-.62-2,17.1,17.1,0,0,1,.18-2.4,4.77,4.77,0,0,1,1.22-2.62,4.07,4.07,0,0,1,.69-.53,2.47,2.47,0,0,1,1-.31,2.51,2.51,0,0,1,1.82.71,6.48,6.48,0,0,1,1.43,2.25,46.22,46.22,0,0,1,1.83,5.43c.51,2,.9,4,1.25,6.05.21,1.26.37,2.52.5,3.78.19,1.91.27,3.84.34,5.75,0,1.48.15,2.94.12,4.42a8,8,0,0,1,0,1c-.11,1.22-.41,1.58-.9,1.76a2.13,2.13,0,0,1-.33.11c-.17,0-.3-.09-.42-.33a2.37,2.37,0,0,1-.22-1c-.1-2.54-.07-5.17-.24-7.85-.12-2-.3-4-.58-6Z"/><path class="cls-1" d="M59.78,70.51c.11-3.25-.16-6.56-.28-9.92,0-1.23-.11-2.46-.06-3.7.19-4.29.3-8.55.08-12.79a24.31,24.31,0,0,0-.8-5.48,4.23,4.23,0,0,0-.28-.74.68.68,0,0,0-.14-.22.47.47,0,0,0-.15-.13.32.32,0,0,0-.35,0,.88.88,0,0,0-.15.12,1.93,1.93,0,0,0-.24.25A10.54,10.54,0,0,0,56,41c-.31.73-.53.52-.65-.17a7.08,7.08,0,0,1-.14-1.41,3.92,3.92,0,0,1,.53-2.12,4.31,4.31,0,0,1,.8-1l.36-.29c.13-.08.27-.13.4-.2a1.59,1.59,0,0,1,.85-.17,2,2,0,0,1,1.48.85l.27.36.15.27a3.1,3.1,0,0,1,.24.53,15.79,15.79,0,0,1,.79,3.91,56.19,56.19,0,0,1,.11,7.56c0,1.51-.09,3-.13,4.57S61,56.8,61,58.29c0,3.31.34,6.66.39,10.05A35.84,35.84,0,0,1,61,74.62a21.11,21.11,0,0,1-1.25,4.64,22.45,22.45,0,0,1-2.29,4.2,24.71,24.71,0,0,1-2.3,2.87,20.18,20.18,0,0,1-2.73,2.49c-.43.34-.88.63-1.34.94-1.78,1-2.51,1.06-3.06.77a1.63,1.63,0,0,1-.37-.21c-.29-.29.37-.8,1.55-1.48a21.09,21.09,0,0,0,8.49-9,21.93,21.93,0,0,0,2-9.31Z"/><path class="cls-1" d="M52,99.89c-.16,1.35-.35,2.69-.46,4,0,.49-.05,1-.08,1.48-.15,1.75-.28,3.5-.33,5.25,0,.77,0,1.56,0,2.32,0,1,.12,2,.09,2.9,0,.23-.23.37-.55.15a2,2,0,0,1-.75-1.3,27.68,27.68,0,0,1-.08-6.17c.11-1.23.07-2.51.13-3.77s.18-2.77.31-4.15l.31-2.54c.16-1.29.4-2.57.59-3.84.18-1,.26-2,.49-3a5.13,5.13,0,0,1,.13-.66c.3-.8.56-1,1-1a2.44,2.44,0,0,1,.27,0c.27.05.39.46.35,1-.25,1.66-.61,3.39-.85,5.2-.21,1.33-.39,2.68-.53,4Z"/><path class="cls-1" d="M36.5,105.46a38.29,38.29,0,0,0,3.92,1.16c.49.1,1,.16,1.47.25a22.69,22.69,0,0,0,5.19.52,10,10,0,0,0,2.26-.34c.94-.27,1.81-.63,2.71-1,.29-.1.44.18.37.6a1.84,1.84,0,0,1-1,1.3,9.25,9.25,0,0,1-3.22.91,13.33,13.33,0,0,1-3.28,0c-1.29-.15-2.62-.2-3.91-.44a38.87,38.87,0,0,1-4.16-1c-.85-.26-1.67-.55-2.5-.83-1.25-.45-2.48-1-3.69-1.47-.95-.39-1.92-.7-2.86-1.15a6,6,0,0,1-.61-.32c-.73-.5-.88-.87-.73-1.3a1.34,1.34,0,0,1,.13-.27c.2-.23.54-.22,1.07-.06,1.58.53,3.23,1.34,4.94,2,1.27.51,2.55,1,3.86,1.42Z"/><path class="cls-1" d="M72.52,55c.55,1.57,1.12,3.13,1.77,4.67s1.36,3.14,1.87,4.78c.39,1.19.78,2.38,1.1,3.57.56,2.11,1.07,4.21,1.75,6.22A26.73,26.73,0,0,0,81.67,80a17.29,17.29,0,0,0,3.65,4.19,17.71,17.71,0,0,0,6.27,3.1c.68.34.59.5-.13.77a3.6,3.6,0,0,1-1.48.24,9.15,9.15,0,0,1-1-.09,9.45,9.45,0,0,1-1-.31A16.26,16.26,0,0,1,81.66,83a24,24,0,0,1-3.72-6.89c-1-2.94-1.83-6-2.73-8.92a41.67,41.67,0,0,0-1.66-4.71c-.65-1.55-1.4-3.12-2-4.72-.39-1-.76-2-1.09-3s-.65-2-.94-3c-.22-.77-.37-1.57-.56-2.35s-.31-1.58-.39-2.39a14.74,14.74,0,0,1,.09-4.91,5.9,5.9,0,0,1,.72-1.9,1.85,1.85,0,0,1,2.17-1,2.65,2.65,0,0,1,1,.78,6.4,6.4,0,0,1,.58.85A16.58,16.58,0,0,1,74,42.52L74.65,44c.37.9.62,1.44.75,1.8a2.22,2.22,0,0,1,.14.83,1,1,0,0,0,.16.38.18.18,0,0,1-.07.27.78.78,0,0,1-.63,0,3,3,0,0,1-1.43-1.43c-.57-1-1-2-1.45-3a12.61,12.61,0,0,0-.72-1.33,3,3,0,0,0-.33-.43h0l0,0s.06-.06-.08.14a4,4,0,0,0-.43,1.19,11.06,11.06,0,0,0-.15,3A38.2,38.2,0,0,0,72.57,55Z"/><path class="cls-1" d="M75.11,32.44a54.47,54.47,0,0,0,.17,6.11c.06.75.19,1.49.27,2.23a77.67,77.67,0,0,0,1.21,7.88c.26,1.15.56,2.3.9,3.41.22.72.48,1.42.74,2.11a20.72,20.72,0,0,0,.79,2c.19.36,0,.52-.45.34A3.54,3.54,0,0,1,77.15,55a28.92,28.92,0,0,1-1.63-4.47,40.53,40.53,0,0,1-.93-4.64c-.26-1.86-.7-3.78-1-5.69a51.88,51.88,0,0,1-.46-6.36,29.41,29.41,0,0,1,.2-4,11.33,11.33,0,0,1,.74-3,4.17,4.17,0,0,1,1-1.41,2.66,2.66,0,0,1,1.72-.7,2,2,0,0,1,1.44.63A4.81,4.81,0,0,1,79,26.48a20.48,20.48,0,0,1,.83,2.18c.11.31.23.61.33.92.38,1.15.32,1.55-.09,2a1.8,1.8,0,0,1-.27.28q-.24.16-.57-.09a2.19,2.19,0,0,1-.66-.89c-.56-1.23-1-2.66-1.43-3.68a1.43,1.43,0,0,0-.32-.49s0,0,0,0c-.18,0-.33.06-.58.43a6.27,6.27,0,0,0-.78,2.39,20.25,20.25,0,0,0-.25,3Z"/><path class="cls-1" d="M85.17,22.14a14.1,14.1,0,0,0-.36-2.05,3,3,0,0,0-.14-.45l-.09-.22c0-.05-.06-.11-.12-.1h0a.51.51,0,0,0-.22.05,2.19,2.19,0,0,0-.43.15,3,3,0,0,0-.77.6,6,6,0,0,0-1.12,2,16.52,16.52,0,0,0-.72,3.34,49.15,49.15,0,0,0,.22,12.58,51.35,51.35,0,0,0,1.05,5.53c.61,2.32,1.32,4.6,2,6.87.23.71-.05.75-.63.31a6.4,6.4,0,0,1-2-2.76A41.63,41.63,0,0,1,80,40.69a51.12,51.12,0,0,1-.78-7.52,46.57,46.57,0,0,1,.35-9.33,12.38,12.38,0,0,1,1.34-3.9,5.78,5.78,0,0,1,1.44-1.7,4.21,4.21,0,0,1,1-.55,5.4,5.4,0,0,1,.57-.18l.72-.08a1.59,1.59,0,0,1,1.45.88,4.79,4.79,0,0,1,.34.7c.08.21.14.42.2.62a30.44,30.44,0,0,1,.8,6.29c.08,1.58,0,3.16.09,4.7a38.9,38.9,0,0,0,.37,4.6A34.12,34.12,0,0,0,89.68,42l.56,1.44c.7,1.79.76,2.43.46,3a2.24,2.24,0,0,1-.21.38c-.27.32-.9-.29-1.57-1.59A33.41,33.41,0,0,1,86.63,39a38.52,38.52,0,0,1-1-6.85c-.12-1.71-.1-3.45-.14-5.06s-.17-3.29-.35-4.89Z"/><path class="cls-1" d="M97.15,33.46c-.14-1.6-.29-3.18-.48-4.76a28.4,28.4,0,0,0-.84-4.55,4,4,0,0,0-.46-1,.23.23,0,0,0-.29-.1,1.1,1.1,0,0,0-.27.15,4.2,4.2,0,0,0-1.45,2A14.29,14.29,0,0,0,92.58,28a35.47,35.47,0,0,0-.48,6,44.27,44.27,0,0,0,.34,5.41c.15,1.14.33,2.29.49,3.43s.37,2.26.52,3.4c.12.69-.13.7-.63.2A7.28,7.28,0,0,1,92,45.39a6.73,6.73,0,0,1-.69-1.76,38.34,38.34,0,0,1-.91-7.22,37.74,37.74,0,0,1,.35-7.34A25,25,0,0,1,91.66,25a8.7,8.7,0,0,1,1-2l.37-.48c.14-.15.3-.29.45-.44a4.87,4.87,0,0,1,.52-.37,1.14,1.14,0,0,1,.29-.15l.42-.18a1.66,1.66,0,0,1,1.08,0,2.06,2.06,0,0,1,.79.58,3.19,3.19,0,0,1,.46.71,7.88,7.88,0,0,1,.48,1.26,22.49,22.49,0,0,1,.54,2.45c.28,1.63.46,3.24.63,4.85l.58,5.94c.29,3,.54,6,1,8.94a44.58,44.58,0,0,0,1.67,6.6c.17.47.35.91.53,1.37.69,1.68,1,2.14.8,2.72a1.93,1.93,0,0,1-.09.38c-.12.35-.9-.12-1.61-1.42-2-3.85-2.64-8.26-3.35-12.57-.25-1.61-.46-3.22-.66-4.83s-.32-3.23-.48-4.83Z"/><path class="cls-1" d="M93,104.07c-.3-1.16-.62-2.32-1-3.47-.13-.43-.31-.83-.43-1.25-.43-1.49-.89-3-1.38-4.45-.21-.65-.48-1.29-.75-1.92a20.71,20.71,0,0,1-1-2.41c-.08-.25.2-.38.58-.31a1.62,1.62,0,0,1,1.1.8,24.33,24.33,0,0,1,2,5.06c.28,1.06.75,2.1,1.11,3.15s.75,2.34,1.09,3.52L95,105c.29,1.12.58,2.23.86,3.34.21.86.53,1.68.71,2.57,0,.19.09.38.12.58.06.76-.06,1-.47,1.18a2.31,2.31,0,0,1-.28.1c-.31.07-.6-.22-.76-.69-.52-1.4-.89-2.92-1.3-4.47-.31-1.16-.6-2.33-.93-3.49Z"/><path class="cls-1" d="M105.77,103.64a19.73,19.73,0,0,1-3.36,1.11c-.41.11-.82.22-1.24.3a27.8,27.8,0,0,1-4.45.35c-.65,0-1.31,0-2,0a7.92,7.92,0,0,1-2.51-.29c-.25-.09-.16-.39.1-.67a1.6,1.6,0,0,1,1.13-.54l4.84,0a6.85,6.85,0,0,0,1.49-.15c.49-.08,1-.21,1.47-.32a21.89,21.89,0,0,0,3.15-.94,15.32,15.32,0,0,0,1.83-.87,11.68,11.68,0,0,0,1.29-.82,7.33,7.33,0,0,0,1.17-1A11.19,11.19,0,0,0,110.11,98c.09-.14.15-.3.24-.44.32-.54.55-.63,1-.58l.27,0c.27.07.35.42.19.93a8.4,8.4,0,0,1-2.87,3.83,11.8,11.8,0,0,1-1.5,1l-.79.46-.82.38Z"/><path class="cls-1" d="M46.31,53.35a18.66,18.66,0,0,0-2,0c-.24,0-.48.06-.72.08a22,22,0,0,0-2.53.35,7.93,7.93,0,0,0-1.08.33,9.26,9.26,0,0,1-1.36.51c-.3.07-.27-.76.25-1a9.65,9.65,0,0,1,3-.94c.62-.08,1.25-.23,1.88-.31s1.39-.11,2.08-.12h1.28L49,52.3c.5,0,1,0,1.47,0h.33c.4,0,.52.12.58.41,0,.07,0,.13,0,.2,0,.23-.17.4-.46.44a15.77,15.77,0,0,1-2.67.13c-.66,0-1.33-.06-2-.06Z"/><path class="cls-1" d="M84.72,53.13c.55-.32,1.13-.62,1.72-.89.21-.11.42-.23.64-.32a10.94,10.94,0,0,1,2.46-.68c.37-.05.74-.12,1.12-.15a2.76,2.76,0,0,1,1.45.17c.15.06.07.3-.09.54s-.4.48-.62.49c-.81.09-1.61.11-2.49.26a5.36,5.36,0,0,0-1.51.58,18,18,0,0,0-1.63.85c-.33.19-.66.39-1,.6a14.09,14.09,0,0,0-1.43,1c-.34.28-.65.61-1,.89-.08.07-.14.14-.22.2-.29.23-.45.21-.67.08,0,0-.1-.06-.14-.1s-.13-.34,0-.59a9.29,9.29,0,0,1,.77-1,11,11,0,0,1,1-.84,18.09,18.09,0,0,1,1.6-1.1Z"/><path class="cls-1" d="M16.53,13.79c1.95,1.34,4.08,2.59,5.34,4.66.65,1.07,2.34.09,1.68-1-1.44-2.37-3.8-3.83-6-5.37-1-.71-2,1-1,1.69Z"/><path class="cls-1" d="M9,30.83c2.48-.36,5,0,7.5-.11a1,1,0,0,0,0-1.95c-2.69.09-5.34-.21-8,.18-1.24.18-.71,2.06.52,1.88Z"/><path class="cls-1" d="M106.5,11.31c-1.52,2.14-3.18,4.25-3.72,6.89-.25,1.22,1.63,1.75,1.88.52.51-2.46,2.1-4.43,3.52-6.43.73-1-1-2-1.68-1Z"/><path class="cls-1" d="M119,22.94c-2.55.53-4.87,1.72-7.34,2.53-1.18.4-.67,2.28.52,1.88,2.47-.81,4.79-2,7.34-2.53,1.23-.25.71-2.13-.52-1.88Z"/><path class="cls-1" d="M38.56,113.36a.92.92,0,0,0,.08-.25c0-.1-.07-.16-.12-.15s-.16.09-.25.22l-.13.21a4.44,4.44,0,0,0-.36.67,11.22,11.22,0,0,1-1,1.61,2.73,2.73,0,0,1-1.14.94,1.54,1.54,0,0,1-.69.11,1.45,1.45,0,0,1-.7-.2,1.89,1.89,0,0,1-.28-.17l-.17-.16a2.19,2.19,0,0,1-.27-.33c-.07-.12-.16-.25-.21-.36l-.19-.4a3.14,3.14,0,0,1,0-1.71,8.82,8.82,0,0,1,.35-1.19c.27-.72.57-1.38.85-2a10.51,10.51,0,0,0,.67-1.78,2.64,2.64,0,0,0,0-.3s0-.06,0,0a1.68,1.68,0,0,0,.24-.07.38.38,0,0,0,.13-.06l.05,0s0,0,0,0,0,0,0,.09l0,0-.11.26h0s-.1,0-.15,0a.41.41,0,0,0-.31.11,1.57,1.57,0,0,0-.25.22,2.1,2.1,0,0,0-.25.31,8.57,8.57,0,0,0-.83,1.66l-.72,1.92c-.13.33-.26.67-.44,1a2.8,2.8,0,0,1-1,1.11,5.41,5.41,0,0,1-.69.29,1.73,1.73,0,0,1-.39.09,1.43,1.43,0,0,1-.52,0,1.29,1.29,0,0,1-.66-.26,1.25,1.25,0,0,1-.41-.58,1.93,1.93,0,0,1-.11-.9,10.11,10.11,0,0,1,.61-2.41c.43-1.21.88-2.39,1.26-3.55a7.51,7.51,0,0,0,.36-1.64v-.15a.29.29,0,0,1,0-.09s0,0,0,0l.14-.09,0,0h0a.16.16,0,0,0,0,.08v0h0l0,.09h0s0,0,0,0a.3.3,0,0,0-.13,0,4.61,4.61,0,0,0-1.1,1.64c-.33.69-.63,1.43-.94,2.17s-.61,1.49-1,2.24a8.61,8.61,0,0,1-.68,1.1,3.32,3.32,0,0,1-1.11,1,1.26,1.26,0,0,1-.52.15.9.9,0,0,1-.33-.07c-.17-.09-.22-.18-.2-.27s.41-.3.53-.69a32.29,32.29,0,0,1,1.07-3.84,23.73,23.73,0,0,1,2.06-4.19,4,4,0,0,1,1.23-1.15,2.36,2.36,0,0,1,.56-.24,2.66,2.66,0,0,1,.69-.08,2.06,2.06,0,0,1,1.52.77,2.33,2.33,0,0,1,.35.71,4,4,0,0,1,.1.55,4.27,4.27,0,0,1,0,.82,8.61,8.61,0,0,1-.26,1.27c-.4,1.54-1,2.86-1.52,4.18a8.59,8.59,0,0,0-.51,1.75s0,.08,0,.06l-.33.08a.73.73,0,0,0-.25.08.92.92,0,0,1-.13.07s-.06.08,0,0a.13.13,0,0,0,0-.08.69.69,0,0,0,.05-.28c0-.09,0-.16,0-.34s0,0,0,0l.11,0,.16,0,.1,0h0c.07,0,.08,0,.26-.31s.28-.58.42-.91c.37-.88.71-1.85,1.17-2.83a8.63,8.63,0,0,1,.9-1.5,3.61,3.61,0,0,1,.79-.76l.57-.28.62-.16c.21,0,.43,0,.64,0a1.63,1.63,0,0,1,.71.27,1.66,1.66,0,0,1,.63.74,2,2,0,0,1,.17.73,5.29,5.29,0,0,1-.33,1.91c-.36,1-.79,2-1.14,2.89-.28.7-.58,1.54-.45,1.66l0,0,0,.1s.06.13.05.09a2.48,2.48,0,0,0-.23.26.35.35,0,0,0-.11.2h0a.34.34,0,0,0-.06-.2c0-.08-.15-.33-.16-.3l0,0a.51.51,0,0,0,.14-.13,3.61,3.61,0,0,0,.32-.44c.22-.33.43-.71.64-1.1l.91-1.77A13,13,0,0,1,38.78,108a4.74,4.74,0,0,1,.88-.78,1.81,1.81,0,0,1,1.11-.38,1.35,1.35,0,0,1,1,.44,1.41,1.41,0,0,1,.33.81,5.8,5.8,0,0,1-.12,1.8,16.83,16.83,0,0,1-.83,2.71,15.12,15.12,0,0,0-.48,1.49,3.71,3.71,0,0,0-.11.83c0,.08,0,.15,0,.2a.56.56,0,0,0,.08.15c0,.11.11,0-.12.26-.06.05-.07.2-.07.13s0,0,0,0a.3.3,0,0,0,0-.16c0-.06-.05,0-.1-.16s0,0,0,0l.06-.06a1,1,0,0,0,.16-.21,5.59,5.59,0,0,0,.35-.6c.46-.89.84-1.8,1.31-2.83a19.61,19.61,0,0,1,1-1.88,7.49,7.49,0,0,1,1.12-1.43,2.35,2.35,0,0,1,1.39-.7,1.84,1.84,0,0,1,1.47.77,4.27,4.27,0,0,1,.11,2.45c-.08.51-.23,1.06-.36,1.62l-.34,1.39a6.32,6.32,0,0,0-.18,1,1.19,1.19,0,0,0,0,.19v0h0l-.11,0a1.09,1.09,0,0,0-.24.07c-.22,0-.33.23-.26.1a1,1,0,0,0,0-.25,1.83,1.83,0,0,0-.09-.4l.23-.18a1.12,1.12,0,0,0,.26-.27,3.75,3.75,0,0,0,.47-.79,16.8,16.8,0,0,0,.62-1.82,7.19,7.19,0,0,1,1.26-2.72,2.79,2.79,0,0,1,.41-.38,2.34,2.34,0,0,1,.44-.23,1.2,1.2,0,0,1,.78,0,1.14,1.14,0,0,1,.45.33c.12.21-.13.41-.23.68s-.22.63-.43,1.5c-.15.62-.31,1.31-.52,2a10,10,0,0,1-.92,2.32,4.85,4.85,0,0,1-1,1.19,4.91,4.91,0,0,1-.75.51,2.26,2.26,0,0,1-.26.11l-.37.11a2.52,2.52,0,0,1-.62,0,2,2,0,0,1-.84-.35,2,2,0,0,1-.52-.63c0-.1-.09-.2-.13-.3l-.05-.2a3.41,3.41,0,0,1-.06-.63,5.23,5.23,0,0,1,.08-.79,11.8,11.8,0,0,1,.26-1.22l.11-.43v0s0,0,0,0h0a0,0,0,0,0,0,0s0,0,0,0L43.69,114c-.22.53-.44,1.06-.73,1.63a5.91,5.91,0,0,1-.54.93,2.19,2.19,0,0,1-.22.27,1.8,1.8,0,0,1-.31.31,2,2,0,0,1-1.49.56,2,2,0,0,1-1-.31,1.11,1.11,0,0,1-.29-.23,2.18,2.18,0,0,1-.21-.22,2.75,2.75,0,0,1-.47-.75,3.26,3.26,0,0,1-.24-1.56,4.85,4.85,0,0,1,.07-.58l0-.27,0-.06h0v0s.06-.11.1-.18Z"/><path class="cls-1" d="M105.42,104.4a2.45,2.45,0,0,0-.15-.36.1.1,0,0,0,0,0,1.11,1.11,0,0,0,.28-.29.54.54,0,0,0,.15-.21.32.32,0,0,0,0-.09.19.19,0,0,0,0,.1s0-.09,0-.09,0,0,0,0a.59.59,0,0,0,.19.14,1.5,1.5,0,0,0,.34.16s0,0,0,0a1.16,1.16,0,0,0,0,.16,4,4,0,0,0,0,.5c0,.1,0,.2,0,.3l0,.49.33,2.51a12.08,12.08,0,0,1,.12,2.13,4.09,4.09,0,0,1-.24,1.28,2.86,2.86,0,0,1-.43.81,1.44,1.44,0,0,1-.4.36,1.6,1.6,0,0,1-.71.21,1.17,1.17,0,0,1-.65-.25,2.46,2.46,0,0,1-.42-.32,4.62,4.62,0,0,1-1-1.61c-.32-.87-.62-2-.89-3-.14-.46-.32-1-.46-1.32a2.71,2.71,0,0,0-.28-.52l-.09-.11a.74.74,0,0,1,.08-.16s0-.14,0-.09h0a.41.41,0,0,0,0,.1c0,.07.07.15,0,.13l-.12.09-.09.1-.05.05h0l-.54-.43h0a.19.19,0,0,0,.09,0,2.55,2.55,0,0,0,.31.08h.2c.1,0,0,0,0,0v.09a5.88,5.88,0,0,0,.11.68,25.2,25.2,0,0,1,.61,3.28,4.16,4.16,0,0,1-.32,2.2,2.05,2.05,0,0,1-1.84,1.07,1.42,1.42,0,0,1-1.11-.47,3.85,3.85,0,0,1-.76-2c-.08-.54-.13-1.06-.19-1.56s-.12-1-.22-1.46a2.87,2.87,0,0,0-.44-1.12.38.38,0,0,0-.33-.17h0s0,.05,0,0l0-.13,0,0a.54.54,0,0,0,.18.11s0,0,0,.06a6.2,6.2,0,0,0,.2,1.66,19.16,19.16,0,0,1,.36,2,5.56,5.56,0,0,1,0,1.09,2,2,0,0,1-.46,1.24.81.81,0,0,1-.63.28c-.14,0-.19,0-.2-.12s.24-.34.27-.64c0-.53-.63-1.49-1.07-2.94-.14-.46-.27-.94-.38-1.48a4.72,4.72,0,0,1-.11-.91,2.13,2.13,0,0,1,.5-1.53,1.78,1.78,0,0,1,1-.55,1.8,1.8,0,0,1,.44,0,2.47,2.47,0,0,1,.38.05,2.38,2.38,0,0,1,1.3.74,4.15,4.15,0,0,1,.88,1.87,26.15,26.15,0,0,1,.38,3l0,.33,0,.14v.09a.14.14,0,0,0,.07.13.17.17,0,0,0,.23-.14v0a.85.85,0,0,0,0-.15c0-.15,0-.32,0-.49,0-.33-.08-.69-.14-1-.12-.77-.32-1.52-.48-2.44a2.62,2.62,0,0,1,0-1,1.22,1.22,0,0,1,.25-.46l.13-.15a2,2,0,0,1,.33-.3,1.76,1.76,0,0,1,1.12-.43,1.67,1.67,0,0,1,1.15.49,3.22,3.22,0,0,1,.55.68l.18.32.11.2c0,.13.1.25.14.38s.16.51.24.8.09.32.16.49.14.4.33.36.21-.21.23-.34a2.22,2.22,0,0,0,0-.45c0-.31-.06-.64-.09-1l0-.27,0-.39a5.14,5.14,0,0,1,.13-1.6,1.77,1.77,0,0,1,.32-.65,1.34,1.34,0,0,1,.83-.49,1.3,1.3,0,0,1,.92.21,1.81,1.81,0,0,1,.5.5,6,6,0,0,1,.74,1.77c.32,1.11.54,2.2.84,3.25a8.06,8.06,0,0,0,.84,2.09c.2.25.31.32.43.31s.08.13.16-.17a5.93,5.93,0,0,0-.48-2.14c-.28-.75-.64-1.51-1-2.29a17.86,17.86,0,0,1-.74-1.92,2.75,2.75,0,0,1-.1-1.3,1.7,1.7,0,0,1,.2-.47,1.6,1.6,0,0,1,.43-.39,3.11,3.11,0,0,1,.61-.26,1.94,1.94,0,0,1,1.55.2,3.2,3.2,0,0,1,.94.93,11.91,11.91,0,0,1,1,1.85l.71,1.5c.89,1.79,1.1,1.85,1.09,2.69,0,.17.08.35.09.51s-.21.42-.76.35a2.94,2.94,0,0,1-1.78-1.32,18.64,18.64,0,0,1-1.68-3.29,7.62,7.62,0,0,0-.67-1.25l-.11-.11c-.06,0,.11-.17.13-.26a.08.08,0,0,0,0,0,.48.48,0,0,0,0,.12.51.51,0,0,0,0,.22h0l-.07,0h0c-.83-1.53-.23-.43-.41-.77h0c-.06-.06.06.06.14.07a3.27,3.27,0,0,0,.45.1h.29v0s0,0,0,.07a2.75,2.75,0,0,0,.07.27,15.38,15.38,0,0,0,.6,1.48l.77,1.65a15.7,15.7,0,0,1,.71,1.89,5.62,5.62,0,0,1,.3,1.83,2.77,2.77,0,0,1-.51,1.54,2.33,2.33,0,0,1-1.71.89,2.54,2.54,0,0,1-1.61-.38,3.33,3.33,0,0,1-.93-.89,5.84,5.84,0,0,1-.77-1.61,24.63,24.63,0,0,1-.71-2.81,19.72,19.72,0,0,0-.61-2.44Z"/></g></svg>