<svg xmlns="http://www.w3.org/2000/svg" width="96" height="96" viewBox="0 0 96 96"><defs><style>.cls-1{fill:#231f20;}</style></defs><title>scribble final version</title><g id="Layer_1" data-name="Layer 1"><path class="cls-1" d="M78.33,41.79C75.14,55.37,42,72.84,33.31,75.14a.86.86,0,0,1-.78-.12L29,72.12S55.89,59,60.61,54.46,78.05,40.77,78.05,40.77Z"/><path class="cls-1" d="M28,75.83a36.6,36.6,0,0,1-6.24-5.15A32.38,32.38,0,0,1,17,64.09a30.17,30.17,0,0,1-3.56-15.71,34.76,34.76,0,0,1,.71-5.85,28.88,28.88,0,0,1,1.72-5.61,36,36,0,0,1,12.81-15.7,34.18,34.18,0,0,1,9.2-4.4c.83-.2,1.64-.47,2.48-.61l2.53-.45,2.54-.19c.85-.08,1.7,0,2.54,0l1.13,0,1.12.12c.74.09,1.49.13,2.23.25a38.19,38.19,0,0,1,4.36,1A38.89,38.89,0,0,1,61,18.4c.69.28,1.34.63,2,.94a17.39,17.39,0,0,1,2,1,31,31,0,0,1,8.84,7.25A22.6,22.6,0,0,1,78.64,38c0,1.22-.1,1.75-.36,1.77s-.7-.47-1.46-1.22l-6-6.91a30.52,30.52,0,0,0-16.74-10,33,33,0,0,0-9.89-.83,29.58,29.58,0,0,0-4.89.83,33.05,33.05,0,0,0-4.75,1.75A27.4,27.4,0,0,0,25,31.15a32.09,32.09,0,0,0-5.69,11.29,26.93,26.93,0,0,0-.37,13.72,25.43,25.43,0,0,0,6.8,12,30.91,30.91,0,0,0,7,5.24,28.92,28.92,0,0,0,8.22,3.06A26.88,26.88,0,0,0,54,76.1a35.83,35.83,0,0,0,11.74-6.26,30.47,30.47,0,0,0,6.5-7.8,34.85,34.85,0,0,0,3.61-9.36l.25-1.07c.07-.36.11-.72.17-1.08.09-.72.26-1.44.31-2.17.37-2.73.27-4.49.49-5.75A10.72,10.72,0,0,1,77.47,41c.21-.46.39-.82.57-1.18s.29-.75.42-1c.24-.37.62-.05,1.41,1a8.2,8.2,0,0,1,1.33,3.5A11.78,11.78,0,0,1,81.38,45a34.53,34.53,0,0,1-1,10.33,36.42,36.42,0,0,1-4.23,9.81,38.57,38.57,0,0,1-3.3,4.35,25.4,25.4,0,0,1-1.88,2L68.9,73.31l-.51.46-.56.4L66.7,75c-.76.51-1.48,1.1-2.28,1.53L62,77.8c-.4.21-.8.44-1.21.63l-1.27.51-1.87.76a14.79,14.79,0,0,1-1.94.68c-.68.19-1.36.4-2,.56l-2.07.37a32.06,32.06,0,0,1-8.3.1A38.58,38.58,0,0,1,28,75.93Z"/><path class="cls-1" d="M69.5,51.11A112.93,112.93,0,0,1,51.56,62.56C49.27,63.73,47,65,44.71,66q-6.12,2.85-12.43,5.32a106,106,0,0,1-13,4.08,52.81,52.81,0,0,1-6,1.2,18.42,18.42,0,0,1-3.17.14A8.51,8.51,0,0,1,6.78,76a4.9,4.9,0,0,1-1.92-1.63A5.44,5.44,0,0,1,4,72a7.26,7.26,0,0,1,.1-2.37,9.44,9.44,0,0,1,.76-2.09,12.73,12.73,0,0,1,5.89-5.78c.82-.37,1.31-.26,1.38,0s-.16.81-.49,1.48-.79,1.48-1.3,2.44c-.26.46-.5,1-.79,1.47L8.6,68.69a5.45,5.45,0,0,0-.94,2.44,2.82,2.82,0,0,0,.11,1,1,1,0,0,0,.36.53,4.39,4.39,0,0,0,2.34.68,18.2,18.2,0,0,0,3.41-.17c1.19-.15,2.4-.38,3.61-.65s2.41-.69,3.61-1.07c2.4-.78,4.8-1.64,7.2-2.54a153.85,153.85,0,0,0,17.22-7.74c3.12-1.55,6.18-3.11,9.13-4.88s5.84-3.67,8.62-5.71a113.57,113.57,0,0,0,9.85-8.1C75.48,40.26,77.78,38,80,35.62c1.09-1.18,2.15-2.41,3.26-3.63s2.15-2.4,3.09-3.64a16.9,16.9,0,0,0,1.87-3c.12-.26.25-.51.34-.77l.15-.38a2.9,2.9,0,0,0,.09-.28,3.46,3.46,0,0,0,.15-.92.9.9,0,0,0-.41-.74,1.56,1.56,0,0,0-.83-.21,6.37,6.37,0,0,0-1,.13,6.86,6.86,0,0,0-1.53.46,12.07,12.07,0,0,0-2.55,1.46A28.27,28.27,0,0,1,79,25.76a4.64,4.64,0,0,1-1.24.12,8.06,8.06,0,0,1-1.15-.29c-.33-.11-.7-.15-.93-.26-.4-.18-.36-.64-.09-1.57a6.28,6.28,0,0,1,2.39-3,15.65,15.65,0,0,1,7-3,12.09,12.09,0,0,1,2.26-.37,8,8,0,0,1,3.14.38,5.22,5.22,0,0,1,2.45,1.75,4.83,4.83,0,0,1,.94,2.87,10.63,10.63,0,0,1-.67,3.17,5.11,5.11,0,0,1-.23.61l-.21.49c-.15.33-.31.63-.47.95A22.4,22.4,0,0,1,90,31c-1.56,2-3.26,3.78-4.75,5.45A124.71,124.71,0,0,1,69.58,51.18Z"/><path class="cls-1" d="M37.31,42.93a7.69,7.69,0,0,1-1.32.65,9.39,9.39,0,0,1-1.36.28,7.39,7.39,0,0,1-2.51-.21l-.87-.22a5.93,5.93,0,0,1-.86-.38,5.09,5.09,0,0,1-2.19-2.52,4.56,4.56,0,0,1-.31-1.61c0-.27,0-.53.09-.78l.2-.74a6.37,6.37,0,0,1,1.31-2.2,4.07,4.07,0,0,1,2.71-1.47c.32,0,.33.25.2.63a3.22,3.22,0,0,1-.68,1.15,3,3,0,0,0-.71.84,3.18,3.18,0,0,0-.37.95,3.62,3.62,0,0,0-.1.91,6.17,6.17,0,0,1,0,.86c0,.73.7,1.21,1.47,1.5a3.94,3.94,0,0,0,2.8.11A2.58,2.58,0,0,0,36,39.61,3.21,3.21,0,0,0,36.29,37a3.78,3.78,0,0,0-1.23-1.68,2.55,2.55,0,0,1-.38-.26,1.26,1.26,0,0,1-.35-1.36c0-.14.05-.29.08-.43.12-.45.57-.68,1.32-.62a5.09,5.09,0,0,1,3,1.7,5.76,5.76,0,0,1,1,1.61c.08.31.15.63.2.95s0,.66.05,1A6.41,6.41,0,0,1,37.36,43Z"/></g></svg>