<?xml version="1.0" encoding="UTF-8"?><svg id="Layer_1" xmlns="http://www.w3.org/2000/svg" width="520" height="520" viewBox="0 0 520 520"><defs><style>.cls-1,.cls-2{fill:#231f20;}.cls-2{opacity:.65;}</style></defs><path class="cls-1" d="M274.56,481.3c-.24.02-.44-.14-.62-.32-.06-.06-.05-.22.02-.25.15-.08.3-.15.41-.2.08-.02,1.41-.46,1.86-.67.44-.13.87-.2,1.31-.25.89-.15,1.77-.14,2.66-.2.2,0,.39,0,.59.05.67.14,1.35.14,2.02.07.11-.01.23,0,.34-.09.18-.15,2.01-.21,2.25-.15.59.16,1.18.26,1.77.39.08.02.17-.02.25.09.18.26.36.21.54.23.25.02.51.06.76.15.12.04.25.2.37.32.11.11.05.52,0,.57-.11.13-.02.32-.01.49,0,.06,0,.13,0,.18-.01.11-1.47.77-1.63.75-.02,0-.56.04-1.13.07-.57.04-1.16.08-1.28.1-.13.02-.25-.04-.38-.08-.06-.02-1.76.13-1.83.11-.35-.04-.7.03-1.05-.19-.07-.04-.14-.03-.21-.03-.6.01-1.21-.09-1.81-.16-.31-.04-.62-.02-.93-.03-.06,0-.11-.03-.17-.05-.07-.02-.14-.05-.21-.05-.73-.04-1.46-.22-2.19-.22-.17,0-.97-.38-1.16-.39-.11-.02-.46-.27-.56-.25Z"/><path class="cls-1" d="M325.59,480.18c-.2.02-.38-.07-.54-.16-.05-.03-.05-.12,0-.15.13-.05.25-.11.34-.14.07-.02,1.18-.36,1.56-.53.36-.14.73-.29,1.1-.36l2.25-.34c.17-.02.33-.03.5-.02.58.05,1.15,0,1.72-.12.09-.02.19-.02.28-.1.14-.14,1.7-.36,1.9-.32.57.09,1.02.17,1.53.25.07.01.15-.03.22.07.16.22.32.17.47.18.22.02.43.01.65.11.11.05.22.18.33.28.1.09.07.41.04.45-.09.11,0,.26.01.39,0,.04.01.1.01.14,0,.03-.3.28-.62.46-.32.18-.65.34-.72.34-.02,0-.47.07-.95.14-.48.08-.98.13-1.08.14-.11.02-.22-.03-.33-.06-.05-.01-1.49.14-1.55.13-.3-.03-.6.04-.91-.13-.06-.03-.12-.02-.18-.02-.52.02-1.04-.05-1.55-.09-.26-.02-.53,0-.79,0-.05,0-.1-.02-.14-.03-.06-.01-.12-.03-.18-.03-.31,0-.62,0-.94-.02-.31-.05-.63-.09-.94-.1-.14-.02-.84-.2-1.01-.2-.09,0-.4-.14-.49-.13Z"/><path class="cls-1" d="M386.87,474.97c-.2.06-.39-.07-.57-.25-.06-.06-.07-.24-.02-.29.12-.09.24-.17.33-.23.07-.04,1.21-.48,1.6-.66.38-.15.77-.18,1.15-.22l2.35-.22c.17-.01.35,0,.52.02.59.09,1.18.07,1.76,0,.1-.01.2,0,.29-.08.16-.12,1.72-.25,1.92-.21.51.1,1.01.14,1.52.21.07.01.15-.03.22.06.17.2.32.15.48.15.22,0,.43,0,.66.06.11.02.23.14.35.23.11.08.1.42.07.46-.09.12.01.26.04.4,0,.05.02.11.02.14,0,.09-1.23.79-1.38.79-.03.03-1.93.24-2.14.27-.11.02-.23-.03-.34-.06-.07,0-1.55.12-1.61.12-.31-.03-.62.03-.93-.14-.06-.03-.12-.03-.18-.02-.53.01-1.05-.06-1.58-.11-.27-.02-.53,0-.8-.01-.05,0-.1-.02-.15-.03-.06-.01-.12-.03-.18-.03-.63.01-1.26-.05-1.88.02-.14-.01-.85-.22-1.02-.21-.09,0-.42-.19-.5-.15Z"/><path class="cls-1" d="M161.7,479.11c-1.57-.74-15.88-1.46-14,1.35s42.82,1.93,42.82,1.93l-10.45-2.77-18.38-.51Z"/><path class="cls-1" d="M301.84,105.56c1.41,3.31,5.95,4.39,8.88,2.48.55-.36.83-1.12.45-1.71-.35-.55-1.12-.83-1.71-.45-.14.09-.29.18-.44.25-.05.03-.17.12-.23.11.08.01.23-.09.02-.02-.11.04-.88.33-.94.24.18-.02.22-.03.12-.02-.04,0-.08,0-.13.01-.09,0-.17.01-.26.02-.16,0-.31,0-.47,0-.07,0-.14,0-.21-.01-.29-.03-.05.04,0,0-.05.05-.43-.08-.5-.1-.15-.04-.3-.09-.45-.14-.04-.01-.32-.13-.13-.05s-.05-.02-.09-.04c-.15-.07-.31-.16-.45-.25-.07-.05-.14-.1-.21-.14-.21-.13.18.16-.02-.01-.12-.1-.24-.21-.35-.32-.05-.05-.1-.1-.15-.16-.1-.12-.17-.14-.03-.02-.24-.22-.41-.65-.54-.94-.26-.6-1.19-.78-1.71-.45-.63.4-.72,1.06-.45,1.71h0Z"/><path class="cls-1" d="M220.53,268.63c-.75-1.53-1.22-3.12-1.6-4.66-.14-.56-.33-1.1-.43-1.67-.34-1.98-.67-3.94-1.07-5.89-.19-.86-.4-1.72-.56-2.59-.24-1.1-.46-2.21-.62-3.33-.05-.35,0-.32.18-.06.16.26.5.74.77,1.33.46,1.06.97,2.12,1.34,3.21.34,1.1.64,2.21.88,3.35.29,1.35.8,2.72,1.19,4.06.4,1.48.82,2.93,1.43,4.28.38.83.82,1.62,1.37,2.32.82,1.07,1.83,2.06,3.01,2.74.92.54,1.94.79,2.95.98.22.05.44.05.66.09.82.13,1.05.3,1.18.95.03.15.07.29.09.44.05.47-.38.86-1.13.88-2.22.05-4.52-.88-6.37-2.35-1.39-1.07-2.52-2.52-3.32-4.05l.05-.03Z"/><path class="cls-1" d="M286.55,397.67c-4-.09-8.03.11-12.05.51-1.47.14-2.92.37-4.38.55-5.16.64-10.31,1.49-15.45,2.43-2.28.43-4.57.87-6.83,1.3-2.91.54-5.82,1.17-8.8,1.31-.93.02-.8.07-.05-.2.74-.32,2.09-.86,3.74-1.32,2.94-.69,5.86-1.42,8.82-2.06,2.96-.6,5.94-1.18,8.96-1.67,3.6-.59,7.33-1.35,11.04-1.84,4.08-.55,8.2-.91,12.32-1.01,2.54-.06,5.09-.01,7.61.12,3.83.19,7.66.57,11.44.99,2.94.33,5.83.6,8.74,1.04.64.09,1.27.18,1.91.3,2.38.48,3.08.88,3.44,1.55.08.16.2.32.23.46.1.49-.92.58-2.65.35-5.09-.74-10.46-1.5-15.9-2.03-4.03-.38-8.1-.71-12.15-.73v-.05Z"/><path class="cls-1" d="M293.61,297.54c.4,1.48.75,2.96,1.09,4.43.13.54.29,1.06.41,1.6.38,1.9.77,3.8,1.19,5.68.16.84.39,1.67.6,2.49.34,1.03.46,2.15.77,3.2.08.33.07.29-.07.03-.13-.26-.43-.71-.81-1.25-.64-.96-1.04-2.02-1.48-3.07-.21-.53-.42-1.05-.57-1.59-.14-.55-.27-1.09-.39-1.65-.27-1.32-.75-2.65-1.12-3.97-.4-1.46-.77-2.92-1.19-4.36-.26-.89-.52-1.77-.83-2.64-.45-1.32-.93-2.64-1.53-3.88-.49-.96-1.09-1.83-1.71-2.68-.13-.19-.28-.37-.42-.55-.21-.37-.33-.63-.32-.87.04-.26.14-.46.28-.67.07-.1.12-.2.18-.27.11-.12.26-.14.5-.1.23.04.58.13.8.39,1.45,1.44,2.38,3.38,3.17,5.31.58,1.45,1.05,2.93,1.49,4.41l-.05.02Z"/><path class="cls-1" d="M296.44,275.14c-2.1.74-4.28,1.48-6.57,1.95-.83.17-1.67.38-2.54.45-3.09.25-6.02-.3-8.81-.88-1.24-.24-2.49-.42-3.72-.51-.78-.11-1.57-.16-2.35-.25-.79-.11-1.59-.22-2.4-.23-.51-.03-.45-.05-.05-.26.4-.19,1.15-.7,2.12-1,.21-.06.43-.13.65-.18l.65-.08c.44-.06.87-.09,1.3-.12.86-.03,1.71.08,2.54.16,1.67.2,3.29.45,4.87.75,1.91.38,3.86.29,5.74-.02,2.09-.32,4.18-.96,6.27-1.67l3.88-1.38c1.96-.72,3.94-1.41,5.85-2.19,1.48-.62,2.89-1.34,4.36-1.97.32-.14.63-.3.96-.43,1.22-.48,1.67-.48,2.14-.04.11.1.23.19.32.3.28.36-.08.9-.91,1.41-1.23.74-2.53,1.45-3.86,2.11-1.35.62-2.74,1.19-4.13,1.75-2.08.83-4.18,1.6-6.28,2.4l-.03-.06Z"/><path class="cls-1" d="M350.66,280.23c-.28,1.93-.6,3.86-.96,5.77-.33,1.92-.7,3.83-1.08,5.74-.26,1.4-.51,2.79-.8,4.18-1.04,4.9-2.17,9.76-3.33,14.62-.5,2.16-1.01,4.33-1.5,6.47-.33,1.37-.66,2.75-.99,4.13-.3,1.38-.81,2.72-1.2,4.07-.27.84-.23.73-.14-.02.04-.37.09-.9.13-1.55.02-.34.05-.69.07-1.05,0-.19.03-.38.04-.58.03-.19.07-.39.11-.59.55-2.83,1.04-5.67,1.66-8.49.63-2.81,1.26-5.63,1.9-8.47.79-3.38,1.38-6.95,2.01-10.44.69-3.84,1.34-7.69,1.89-11.55l.51-3.56.43-3.57c.23-1.8.37-3.62.55-5.43.15-1.81.26-3.62.35-5.42.04-1.4.05-2.79.04-4.17-.04-1.38-.08-2.76-.12-4.14-.01-.61-.06-1.2-.06-1.82,0-2.27.22-3.01.59-3.51.09-.12.17-.27.26-.33.28-.23.57.69.86,2.37.21,1.24.33,2.51.36,3.8.04,1.28.09,2.58.08,3.88-.03,1.31-.06,2.62-.09,3.94-.06,1.32-.15,2.64-.23,3.96-.12,1.96-.35,3.92-.53,5.89-.25,1.96-.45,3.92-.74,5.87h-.05Z"/><path class="cls-1" d="M326.97,339.55s-1.24,6.83,5.01,7.93c6.25,1.1,27.46,2.18,27.19.23s-9.59-6.73-9.59-6.73l-13.78-3.43s-8.39-4.3-8.83,2Z"/><path class="cls-1" d="M339.97,334.25s7.46.31,13.2,1.86c5.74,1.54,17.72,5.39,16.17,8.1-1.56,2.71-6.72,4.63-10.01,6.24-3.29,1.61-6.15-9.48-6.15-9.48l-14.98-2.84,1.78-3.89Z"/><path class="cls-1" d="M224.92,222.27c.71,0,49.83-.99,49.76-.56s-.08,8.83,2.62,10.02,37.89-.18,37.89-.18l10,1.16-5.54,19.92-4.46,12.99s-14.51,3.84-21.61,4.89c-7.1,1.04-26.46,4.39-32.8,3.14s-19.76-2.1-24.13-5.91c-4.38-3.81-11.72-17.93-11.72-17.93l-1.41-18.64,1.41-8.89Z"/><path class="cls-1" d="M258.62,133.14c1.22-1.16,2.74-2.16,4.47-2.64l.95-.23c.32-.09.64-.15.96-.14.57.01,1.14.02,1.68.16.53.11,1.08.2,1.63.44,1.05.44,1.91,1.03,2.71,1.67.7.57,1.41,1.13,2.02,1.79.4.42.79.86,1.11,1.36.09.12.15.26.22.39.04.15.09.29.11.45.06.31.1.61.11.92,0,.39-.21.38-.63.25-.21-.07-.47-.15-.79-.23-.17-.05-.33-.09-.47-.13-.08-.02-.15-.05-.24-.07-.05-.04-.1-.08-.14-.13-1.26-1.31-2.79-2.6-4.35-3.58-.23-.14-.48-.25-.71-.31-.24-.07-.55-.07-.83-.1l-.43-.04-.42.04c-.27.05-.56,0-.83.06-1.2.12-2.4.62-3.45,1.45-.32.27-.63.54-.94.82-.28.32-.59.61-.86.95-.83,1.01-1.56,2.15-2.13,3.37-.44.95-.67,1.97-1.01,2.95-.07.22-.11.44-.2.66-.31.8-.57,1-1.25.94-.15-.01-.31-.01-.46-.04-.49-.1-.76-.58-.69-1.25.1-.98.29-1.98.59-2.96.33-.97.76-1.94,1.27-2.88.76-1.4,1.72-2.75,2.92-3.98l.05.05Z"/><path class="cls-1" d="M254.21,163.61c.27,1.75.69,3.49,1.3,5.17.23.61.52,1.19.79,1.79.45,1.06.99,2.07,1.57,3.07.56.97,1.27,1.83,2.1,2.59.74.67,1.62,1.19,2.52,1.61,1.21.44,2.35,1.09,3.58,1.69.38.19.33.21-.06.28-.27.06-.55.11-.81.17-.33.05-.76.19-1.16.12-.36-.04-.73-.08-1.1-.15-.37-.06-.69-.24-1.04-.37-.68-.3-1.33-.66-1.96-1.07-1.25-.84-2.36-1.92-3.15-3.2-.9-1.52-1.85-2.98-2.57-4.59-.77-1.76-1.4-3.57-1.85-5.43-.15-.57-.27-1.14-.37-1.72-.12-.58-.21-1.16-.28-1.74-.23-1.76-.29-3.56-.24-5.33.01-.69.03-1.37.04-2.06.06-.68.05-1.38.17-2.07.04-.3.06-.61.13-.91.29-1.11.6-1.41,1.25-1.42.15,0,.31-.02.45,0,.49.07.74.62.67,1.38-.07.56-.05,1.15-.14,1.7-.05.57-.1,1.14-.15,1.71-.06,1.15-.14,2.32-.11,3.49.03,1.74.14,3.52.46,5.27h-.05Z"/><path class="cls-2" d="M322.64,78.92c-1.81,1.47-10.7,1.57-11.17,2.03-.82.78-1.98,10.58,0,12.53s14.51,2,14.51,2l-3.34-16.56Z"/><path class="cls-2" d="M345.17,75.85l11.47-1.11s.63,16.82,1.54,18.37-.56,3.48-.56,3.48l-15.39-1.11s-1.66-4.31-.9-6.81,3.83-12.83,3.83-12.83Z"/><polygon class="cls-2" points="368.05 74.74 367.23 72.51 371.89 71.69 370.39 80.01 368.05 74.74"/><path class="cls-2" d="M371.36,86.72c-.75.87-1.8,5.1-1.8,5.1l3.71-1.22-1.91-3.88Z"/><path class="cls-1" d="M372.96,89.7c-.48-.99-.7-1.93-.89-2.88-.07-.34-.17-.68-.21-1.03-.12-1.23-.08-2.43,0-3.61.03-.52.05-1.05.1-1.56.02-.33.04-.66.08-.99.08-.33.24-.64.38-.95.1-.19.19-.16.35.03.15.19.47.53.64.91.08.66.1,1.3.14,1.94-.03.64-.07,1.27-.13,1.92-.07.77.13,1.55.29,2.3.17.82.39,1.66.72,2.41.2.46.44.88.76,1.21.48.5,1.13.9,1.87,1.06.58.13,1.19.06,1.81,0,.14-.01.27-.05.4-.02.5.08.66.26.74.8.02.12.05.25.06.37.03.4-.2.74-.61.91-.61.3-1.25.27-1.93.22-.68-.07-1.39-.25-2.09-.59-1.04-.47-2.01-1.43-2.52-2.42l.04-.03Z"/><path class="cls-1" d="M321.9,91.14c.02-.67.1-1.41.07-2.17,0-.28-.09-.54-.09-.83-.04-1,.04-2.06.14-3.1.05-.46.04-.93.12-1.38.11-.58.3-1.17.68-1.65.11-.15.13-.12.2.06.06.17.27.49.36.8.39,1.1.48,2.01.55,3.12.03.65.24,1.32.38,2.01.13.76.25,1.55.29,2.36.02.5,0,1.02-.01,1.53-.06.77-.11,1.56-.49,2.48-.28.72-.91,1.42-1.53,1.79-.14.08-.26.18-.4.24-.52.19-.71-.03-.96-.7-.06-.16-.12-.31-.17-.46-.17-.53-.07-1.02.14-1.3.33-.37.54-.62.51-.71,0,0-.01-.02-.01-.02l.03.02h0s0,0,0,0h0s.01.01.02.02h0s0,0,0,0l-.02-.02c-.09-.07-.07-.04-.07-.07,0-.03.03-.11.05-.24.04-.18.07-.5.1-.81.02-.31.05-.64.03-.97h.07Z"/><path class="cls-1" d="M340.68,91.02c-.04-.85,0-1.67.06-2.49.02-.3,0-.59.04-.89.17-1.04.43-2.05.81-3.01.16-.43.27-.87.48-1.27.24-.52.52-1.03.89-1.48.11-.14.14-.1.18.07.03.17.11.5.12.83-.01.29,0,.58,0,.86,0,.28.03.57-.04.82-.1.52-.21,1.04-.36,1.56-.21.62-.16,1.3-.18,1.96-.02.72-.02,1.45.05,2.17.04.45.1.88.2,1.3.16.62.38,1.24.78,1.67.32.34.8.46,1.15.55.08.02.17,0,.24.03.27.06.31.22.34.86l.03.43c.03.48-.22.89-.73.94-.72.06-1.5-.13-2.08-.57-.58-.42-1.05-1.03-1.35-1.64-.46-.91-.61-1.85-.7-2.71h.05Z"/><path class="cls-1" d="M355.4,90.34c-.12-.96-.18-1.93-.21-2.88,0-.35-.06-.69-.04-1.04.05-1.23.15-2.45.4-3.64.09-.53.19-1.06.28-1.58.07-.33.11-.67.22-1,.11-.32.27-.64.41-.95.1-.19.14-.15.21.05.06.2.19.56.24.96.01.69-.07,1.34-.1,2.01-.04.67-.06,1.33-.17,1.99-.12.8-.02,1.64.03,2.45.06.9.15,1.8.3,2.69.09.55.2,1.1.33,1.64.2.81.48,1.68.55,2.66.07.74.02,1.63-.45,2.39-.1.17-.21.34-.37.49-.28.28-.57.37-.79.33-.22-.04-.35-.17-.47-.38-.05-.1-.11-.19-.14-.29-.09-.33.04-.66.08-.93.14-.27.25-.6.29-.95.04-.3,0-.76-.1-1.26-.16-.74-.41-1.77-.55-2.73h.04Z"/><path class="cls-1" d="M360.09,95.18c-.13-.1-.26-.21-.38-.32l-.28-.29c-.18-.2-.34-.41-.49-.62-.3-.42-.55-.87-.76-1.33-.16-.33-.32-.65-.43-.99-.4-1.21-.4-2.47-.4-3.64,0-.53.04-1.05.08-1.56.04-.66.14-1.31.25-1.96.04-.2.05-.17.1,0,.04.17.16.49.24.87.13.65.25,1.3.38,1.96.1.64.14,1.27.22,1.9.09.75.4,1.48.7,2.16.33.75.77,1.45,1.35,2.01.32.33.67.51,1.16.65.71.18,1.52.23,2.28.08.59-.12,1.13-.42,1.62-.73.1-.07.21-.15.31-.22.43-.17.62-.11.98.29.08.09.17.18.25.27.25.31.24.72-.08,1.09-.46.55-1.12.8-1.77,1.03-.66.21-1.37.3-2.08.3-1.06-.02-2.17-.19-3.27-.89l.02-.04Z"/><path class="cls-1" d="M252.73,92.41s-15.6-7.4-15.78-19.14c-.19-11.74,4.85-17.52,8.29-19.37,3.44-1.84,17.76-.42,17.76-.42,0,0,4.29-9,7.58-11.06,3.29-2.05,14.99-6.84,18.43-4.14,3.44,2.7,13.7,4.94,13.7,4.94,0,0,13.5-3.39,15.93-1.7,2.44,1.7,5.81,5.17,4.68,9.38s-8.14,10.72-8.14,10.72c0,0-12.36,6.42-16.79,6.73s-22.17-.15-22.17-.15l-6.46-2.02s1.7,9.37.82,12.73-2.32,8.04-3.17,7.93c-.85-.11-4.58-.98-7.94.09-3.36,1.06-6.74,5.47-6.74,5.47Z"/><path class="cls-1" d="M283.5,396.41c-4.59.5-9.17,1.05-13.75,1.6l-5,.71c-5.89.72-11.78,1.47-17.63,2.41-2.6.41-5.19.95-7.74,1.49-3.29.65-6.51,1.56-9.85,1.97-1.08.01-1.01-.23-.29-.96.36-.37.9-.79,1.58-1.24.34-.22.71-.45,1.12-.65.41-.18.86-.34,1.33-.47,6.66-1.99,13.49-3.05,20.38-3.89,4.13-.48,8.36-1.31,12.56-1.91,4.62-.67,9.25-1.23,13.88-1.77l4.28-.49,2.14-.24,1.15-.13c.61,0,.85.08,1.24.12,4.32.54,8.64,1.18,12.92,1.74,3.33.44,6.61.72,9.92,1.15.73.1,1.44.16,2.17.28,1.35.23,2.24.42,2.83.71.59.3.89.63,1.1,1.08.09.2.23.41.27.6.07.32-.2.54-.73.68-.53.14-1.33.21-2.32.11-5.87-.55-12.01-1.37-18.2-2.17-2.3-.29-4.6-.59-6.9-.89l-1.73-.21-.4-.05s0,0-.01,0l-.83.1-3.46.42-.02-.08Z"/><path class="cls-1" d="M224.31,333.58l-1.45,23.4c-.17,2.85-.28,5.7-.48,8.54-.75,10.03-1.6,20.04-2.58,30.05-.45,4.44-.77,8.91-1.15,13.32-.21,2.83-.5,5.67-.85,8.5-.35,2.83-.71,5.65-1.35,8.44-.5,1.73-.5,1.49-.82-.05-.17-.77-.33-1.85-.54-3.17-.16-1.31-.21-2.82-.16-4.46l.16-4.35.07-2.17.18-2.16c.25-2.89.49-5.77.74-8.66.53-5.78,1.02-11.57,1.65-17.37.74-6.95,1.02-14.22,1.45-21.35.48-7.84.94-15.69,1.35-23.55.24-4.83.49-9.67.73-14.5.34-7.32.73-14.68.97-21.95.18-5.66.16-11.21.24-16.81.02-1.23,0-2.44.04-3.68.15-4.6.46-6.06,1.51-6.99.24-.21.48-.5.72-.62.8-.4,1.35,1.5,1.41,4.88.17,10.01-.2,20.54-.64,31.11-.38,7.85-.75,15.74-1.13,23.61h-.09Z"/><path class="cls-1" d="M289.68,357.43l-.36,31.23c0,3.8-.01,7.6-.02,11.39l-.54,40.15c-.06,5.94-.03,11.91.01,17.8.03,7.57.4,15.17-.37,22.74-.38,2.36-.47,2.04-1.06.05-.28-1-.77-2.41-1.02-4.13-.29-1.71-.53-3.72-.61-5.9-.19-15.46-.17-30.91.19-46.5.21-9.32.05-19.02.09-28.56.07-10.48.15-20.97.22-31.46.05-6.45.09-12.91.14-19.36.05-9.77.16-19.59.12-29.29-.03-7.54-.26-14.93-.38-22.39-.03-1.64-.09-3.25-.08-4.91,0-6.14.29-8.12,1.29-9.4.22-.29.44-.68.65-.85.71-.56,1.32,1.95,1.47,6.42.54,13.31.56,27.36.54,41.47-.06,10.48-.13,21-.19,31.51h-.09Z"/><path class="cls-1" d="M309.79,355.5l7.77,31.02c.96,3.77,1.99,7.52,2.92,11.3,3.28,13.31,6.47,26.65,9.49,40.03,1.36,5.93,2.72,11.9,4.07,17.78.82,3.79,1.72,7.57,2.49,11.38l1.03,5.74c.18.95.3,1.92.42,2.88.12.97.26,1.93.36,2.89.17,2.43.1,2.11-.73.2-.43-.96-.99-2.32-1.68-3.97-.64-1.66-1.25-3.63-1.8-5.79-3.73-15.37-7.11-30.79-10.64-46.34-2.07-9.31-4.73-18.88-7.16-28.33-2.68-10.39-5.36-20.79-8.05-31.19-1.63-6.41-3.26-12.82-4.89-19.22-2.4-9.72-4.8-19.49-7.18-29.14-1.91-7.49-3.78-14.83-5.66-22.24-.42-1.63-.82-3.23-1.2-4.88-1.41-6.13-1.61-8.14-.91-9.66.14-.34.25-.78.4-1,.44-.71,1.8,1.62,2.94,6.07,3.48,13.19,6.83,27.15,10.29,41.16,2.55,10.41,5.16,20.85,7.81,31.27l-.08.03Z"/><path class="cls-1" d="M262.87,274.29c5.32.53,10.64,1.07,15.94,1.44,1.93.12,3.87.16,5.78.25,1.69.08,3.36.14,4.78-.03,1.46-.26,3.16-.79,4.76-1.29,3.25-1.02,6.5-2.16,9.73-3.31,2.87-1.03,5.72-2.17,8.52-3.32,3.6-1.47,7.14-3.15,11.14-3.67,1.19-.29,1.09-.09.24.56-.41.36-1.06.7-1.67,1.54-.32.39-.73.64-1.14.98-.21.17-.43.31-.65.49-.24.12-.48.25-.73.38-1.78.89-3.61,1.67-5.45,2.43-1.84.77-3.68,1.52-5.53,2.26-3.71,1.47-7.46,2.86-11.32,4.08-1.16.37-2.32.75-3.5,1.13-.59.19-1.18.39-1.8.57l-.92.28-1.01.25c-.68.14-1.38.18-2.07.27-.66.04-1.28.05-1.93.07-1.28.05-2.51,0-3.76-.02-5.45-.21-10.82-.73-16.21-1.19-3.31-.31-6.62-.61-9.93-.92-5.01-.45-10.03-.97-15.01-1.3-3.87-.26-7.68-.27-11.5-.38-.84-.02-1.67,0-2.52-.04-1.57-.08-2.6-.18-3.31-.42-.71-.28-1.11-.63-1.43-1.14-.14-.23-.34-.46-.42-.69-.13-.38.13-.7.71-.97.59-.27,1.51-.54,2.68-.57,6.92-.32,14.15.15,21.38.75,5.36.48,10.75.96,16.13,1.43v.1Z"/><path class="cls-1" d="M339.25,353.3c-2.3-.18-4.59-.36-6.89-.49-.84-.05-1.68,0-2.51-.05-2.95-.21-5.9-.33-8.85-.49-1.31-.06-2.63,0-3.92.06-.83.05-1.67.05-2.51.05-.84.02-1.68-.08-2.53-.21-.53-.09-.48-.32-.07-.7.21-.19.5-.44.86-.7.36-.27.79-.51,1.27-.62.85-.19,1.7-.39,2.56-.53.86-.09,1.72-.15,2.59-.21,1.73-.08,3.46-.15,5.2.04,2.08.2,4.23.03,6.35.08,2.33.06,4.66.16,6.98.27l4.29.2c2.16.09,4.33.23,6.48.21,1.67-.02,3.3-.25,4.95-.4.36-.03.72-.1,1.08-.11,1.35-.02,1.78.34,2.07,1.18.07.2.15.39.19.58.13.64-.42,1.21-1.42,1.53-2.96.71-6.09.7-9.21.67-2.32-.04-4.65-.15-6.97-.26v-.09Z"/><path class="cls-1" d="M355.32,337.77c-.98-.35-1.97-.69-2.97-.98-.37-.1-.74-.17-1.11-.28-1.29-.4-2.6-.77-3.93-1.08-.59-.13-1.19-.22-1.78-.29-.76-.09-1.53-.15-2.27-.41-.23-.09-.16-.4.08-.69.24-.3.66-.6,1.11-.59,1.6.05,3.17.33,4.72.79.92.28,1.92.38,2.88.59,1.05.26,2.09.56,3.13.89.64.2,1.27.42,1.9.63.95.35,1.9.71,2.84,1.05.74.26,1.5.43,2.24.68.16.05.33.09.5.15.53.37.63.62.55,1.07-.02.1-.03.21-.06.3-.1.31-.46.45-.96.45-.74.01-1.34-.29-2-.47-.65-.22-1.29-.47-1.94-.71-.96-.37-1.95-.73-2.94-1.06v-.05Z"/><path class="cls-1" d="M350.23,317.29c1.15-6.04,2.3-12.07,3.39-18.11l1.09-6.63c1.41-7.76,2.84-15.53,3.79-23.32.21-1.72.38-3.46.43-5.17.02-.85.02-1.7-.1-2.46-.16-.83-.28-1.67-.51-2.48-.54-2.08-1.36-4.08-2.55-5.82-1.16-1.77-2.76-3.16-4.59-4.34-1.09-.89-.99-.74.27-.64.63.05,1.5.27,2.53.7,1.01.45,2.12,1.2,3.06,2.27,1.68,1.88,2.82,4.16,3.54,6.49.16.59.34,1.17.49,1.76l.37,1.78c.21,1.39.18,2.55.16,3.75-.13,4.72-.81,9.26-1.6,13.82-.96,5.44-1.63,11.14-2.59,16.7-1.05,6.11-2.18,12.2-3.3,18.29-.69,3.75-1.38,7.5-2.07,11.24l-.76,4.26-.36,2.13-.16.99-.09.61c0,.09-.06.22.02.29.09.05.18.09.27.13l.56.23,1.99.78c1.34.53,2.69,1.05,4.02,1.58,2.08.82,4.16,1.62,6.21,2.51,1.03.45,2.04.93,3.06,1.47,1.02.57,2,1.1,3.02,2.16.51.57.88,1.31.88,2.09,0,.2,0,.39-.03.59l-.12.57c-.11.34-.24.68-.42.98-.68,1.15-1.55,1.65-2.21,2.02-.68.34-1.25.51-1.72.58-.94.15-1.51-.02-1.98-.36-.21-.16-.48-.31-.6-.49-.21-.3.03-.62.58-.97.54-.35,1.43-.73,2.3-1.31.66-.42,1.02-.94,1.1-1.34,0-.16,0-.22-.07-.31-.03-.04-.06-.05-.11-.1-.07-.07-.22-.2-.37-.31-1.27-.97-3.13-1.85-4.9-2.66-1.81-.81-3.68-1.59-5.59-2.33-1.94-.71-3.88-1.41-5.83-2.12l-.78-.29c-.35-.15-.75-.25-1.05-.45-.16-.09-.33-.18-.47-.27l-.38-.32c-.1-.12-.25-.2-.32-.35.03-.21-.08-.32-.11-.48-.12-.29-.18-.63-.22-.98.03-.38.05-.76.11-1.13l.22-1.45.79-4.61,1.65-9.17h.08Z"/><path class="cls-1" d="M315.69,264.25l3.12-.5c.38-.07.75-.2,1.13-.26,1.36-.22,2.73-.43,4.07-.7.6-.11,1.18-.32,1.76-.46.38-.08.76-.18,1.14-.24.39-.03.81,0,1.22.01.26.02.23.06.08.25-.16.18-.41.64-.77,1.01-1.36.98-2.91,1.29-4.49,1.59-.95.15-1.86.56-2.8.84-1.03.3-2.08.58-3.14.8l-1.98.4c-1,.2-2.02.33-3.02.52-.78.16-1.54.38-2.34.52-.17.03-.35.05-.53.05-.66-.03-.87-.23-1-.81-.03-.13-.07-.26-.08-.39-.05-.44.21-.82.64-1.03,1.28-.69,2.55-.91,3.9-1.12,1-.16,2.02-.31,3.05-.52l.02.06Z"/><path class="cls-1" d="M345.07,288.06c.99-6.16,1.89-12.33,2.51-18.51.22-2.26.33-4.52.47-6.78.24-3.97.32-7.96.04-11.88-.15-1.95-.39-3.9-.86-5.75-.23-.93-.54-1.81-.92-2.62-.39-.83-.83-1.48-1.52-2.13-2.33-2.31-5.64-3.71-8.93-4.61-2.12-.62-4.32-1.02-6.53-1.34-1.1-.16-2.21-.3-3.33-.42-.28-.04-.56-.04-.83-.11-.27-.08-.55-.15-.83-.23-.55-.14-1.11-.31-1.67-.42-1.4-.33-1.23-.35-.01-.76.61-.21,1.48-.56,2.56-.99,1.08-.3,2.33-.32,3.69-.22,2.39.23,4.78.61,7.15,1.21,2.36.62,4.69,1.51,6.91,2.75.56.31,1.1.64,1.63,1.03.54.35,1.05.78,1.55,1.21.52.4.95.95,1.42,1.42.23.27.46.58.67.88.18.3.38.61.54.92,1.24,2.48,1.61,4.95,1.88,7.37.56,5.79.44,11.67.15,17.45-.39,6.34-1.12,12.64-1.96,18.9-.52,3.86-1.1,7.71-1.7,11.54-.95,5.81-1.9,11.64-2.84,17.4-.7,4.48-1.19,8.91-1.75,13.35-.11.98-.23,1.93-.34,2.92-.47,3.64-.85,4.7-1.84,5.4-.22.16-.44.38-.66.48-.7.36-1.3-1.31-1.13-4.05.5-8.12,1.95-16.42,3.35-24.78,1.05-6.2,2.11-12.42,3.05-18.64h.08Z"/><path class="cls-1" d="M348.24,93.6c.9.12,1.81.25,2.71.36.33.04.66-.01.99.04l1.74.26c.58.11,1.16.22,1.74.3.52.05,1.03.1,1.54.15.33.04.66,0,.99.12.33.15.66.35.99.49.2.11.18.11,0,.25-.09.07-.21.19-.36.36-.15.16-.32.39-.51.55-.08.06-.17.15-.25.2l-.25.07-.5.14c-.34.09-.67.17-1.01.23-.67,0-1.34-.06-2.02-.2-.81-.17-1.65-.07-2.48-.1-.91-.07-1.82-.13-2.73-.2-.56-.04-1.12-.09-1.68-.12-.85-.04-1.7-.13-2.54-.07-.65.03-1.3.3-1.94.39-.14.02-.28.07-.43.08-.27,0-.44-.03-.56-.19-.12-.18-.19-.44-.25-.82-.03-.17-.06-.35-.08-.51-.03-.29.02-.55.11-.78.1-.24.25-.47.44-.56,1.16-.68,2.37-.7,3.6-.67.91.02,1.82.12,2.73.18v.07Z"/><path class="cls-1" d="M347.75,73.4c.99-.03,1.99-.08,3-.18.37-.03.72-.16,1.09-.19,1.31-.12,2.66-.09,4-.14.59-.04,1.18-.08,1.76-.1.75-.03,1.52.09,2.28.28.24.06.21.13.03.32-.18.17-.5.58-.88.84-.35.21-.68.46-1.02.65-.35.14-.69.3-1.04.42-.71.14-1.44.24-2.19.27-.9.04-1.79.36-2.69.53-1.01.18-2.02.32-3.06.46-.63.09-1.27.15-1.91.21-.97.09-1.95.12-2.9.25-.74.11-1.46.37-2.21.55-.16.04-.32.09-.49.1-.62.04-.82-.18-.95-1.02-.03-.19-.07-.38-.09-.57-.06-.64.18-1.19.6-1.41,1.23-.67,2.48-.83,3.77-1.01.95-.11,1.91-.25,2.9-.33l.02.08Z"/><path class="cls-1" d="M304.83,116.87c-2.52,1.42-5.21,2.19-7.86,2.66-.97.14-1.93.38-2.91.44-1.72.13-3.44.11-5.14-.02-.85-.07-1.7-.16-2.56-.29-.91-.15-1.6-.3-2.4-.38-1.38-.15-2.79-.07-4.09.24-.83.21-1.62.52-2.37.87-.75.37-1.39.82-2.21,1.23-.62.18-.62.14-.66-.56-.04-.37.04-.82.2-1.38.2-.51.58-1,1.11-1.38,1.88-1.35,4.13-1.73,6.21-1.81,1.05-.03,2.09.04,3.11.19l1.4.24c.44.07.89.14,1.34.2,2.18.28,4.5,0,6.71-.3,2.44-.34,4.85-.92,7.04-1.94,1.36-.6,2.59-1.43,3.67-2.41.81-.76,1.46-1.6,2.09-2.58.62-1,1.19-2.03,1.66-3.09.74-1.65,1.08-3.37,1.47-5.12.08-.39.14-.78.24-1.17.37-1.46.75-1.87,1.68-1.93.21-.01.43-.05.63-.04.68.05,1.07.8.98,1.91-.14,1.65-.36,3.41-.95,5.16-.57,1.75-1.38,3.44-2.29,5.02-.17.3-.34.58-.52.87-.17.28-.35.58-.59.89-.46.61-.88,1.27-1.44,1.78-.53.55-1.06,1.08-1.67,1.51l-.89.68-.94.57-.05-.07Z"/><path class="cls-1" d="M270.05,86.58c-.21.35-.47.68-.76.99l-.42.48c-.18.17-.44.43-.7.59-.52.34-1.18.56-1.75.61-.52.06-.97.04-1.38,0-1.62-.17-2.87-.53-4.11-.68-.89-.12-1.73-.06-2.46.07-1.28.23-2.26,1.04-3.02,2.34-.12.18-.17.31-.21.61-.03.28,0,.63.06,1.01.14.77.31,1.48.65,2.18.58,1.23,1.51,2.33,2.63,3.12,1.48,1.02,3.05,1.54,4.82,2.4.57.31.53.38-.02.8-.53.49-1.75,1.22-3.14,1.02-4.74-1.04-8.53-5.6-8.05-10.93.07-.46.21-.96.46-1.43.24-.39.4-.64.63-.95.43-.6.96-1.18,1.57-1.67,1.22-1.03,2.86-1.52,4.3-1.57,1.6-.06,3.04.25,4.37.49,1.3.27,2.66.4,2.97.05.06-.02.19-.22.3-.34l.34-.42.58-.95.48-1.04.39-1.11c.64-2.3,1-4.8.96-7.27-.02-1.92-.37-3.8-.73-5.67-.08-.41-.2-.81-.26-1.22-.27-1.53-.14-2.04.72-2.55.19-.11.38-.25.58-.34.66-.28,1.39.26,1.78,1.43,1.14,3.46,1.49,7.31,1.19,11.23-.09,1.46-.38,2.93-.79,4.4-.41,1.47-.99,2.95-1.9,4.36l-.07-.04Z"/><path class="cls-1" d="M242.8,59.2c-.5.58-.87,1.24-1.27,1.89-.39.67-.74,1.41-1.06,2.14-.64,1.47-1.14,3.01-1.47,4.58-.24,1.15-.3,2.31-.38,3.47-.05,1.02-.03,2.04.05,3.06.11,1.01.29,2.01.56,3,.59,1.98,1.44,3.94,2.51,5.79.94,1.65,2.16,3.14,3.4,4.55.8.91,1.71,1.71,2.58,2.54.87.86,1.74,1.72,2.62,2.59.56.56.42.64-.34.61-.38,0-.94-.03-1.6-.11-.66-.09-1.36-.33-2.06-.7-.3-.18-.6-.34-.89-.53-.28-.2-.53-.43-.8-.64-.54-.42-1.03-.89-1.54-1.35-.48-.48-.98-.95-1.42-1.47-.44-.52-.85-1.07-1.26-1.61-1.58-2.21-2.92-4.64-3.72-7.3-1.03-3.17-1.63-6.69-1.26-10.04.4-3.69,1.56-7.19,3.37-10.38,1.12-2,2.62-3.78,4.39-5.2,1.34-1.08,2.81-2.01,4.4-2.65,1.56-.71,3.24-1.11,4.92-1.37,2.61-.36,5.32-.3,7.9.53.55.21,1.15.31,1.67.62,2.03.98,2.36,1.78,2.2,2.68-.04.21-.06.44-.14.63-.27.61-1.28.58-2.47,0-3.64-1.61-7.78-1.89-11.61-.55-1.4.52-2.78,1.16-3.99,2.08l-.47.32-.43.37c-.28.25-.58.49-.85.75-.5.56-1.06,1.09-1.48,1.73l-.07-.05Z"/><path class="cls-1" d="M308.56,83.9c-.31,2.13-.19,4.53.14,6.86.13.85.37,1.69.55,2.5l.05.39c.01.06.02.13.05.17.04.03.1.05.15.07l.17.04c.07.01.08.03.32.04l1.15.05,4.75.09c1.42.02,2.84-.07,4.26-.08.91.01,1.83-.13,2.75.09l.69.14.68.25c.45.17.91.36,1.34.58.53.35.44.29-.07.5-.25.12-.61.3-1.02.57-.22.15-.44.29-.66.43-.12.08-.24.13-.36.24-.12.02-.24.08-.37.11-.44.1-.89.31-1.33.33l-1.34.08c-.9.06-1.8.13-2.71.11-1.82,0-3.67-.02-5.55-.21-.56-.06-1.13-.09-1.72-.11l-.97-.04c-.47-.02-.95-.05-1.39-.15-.23-.03-.42-.14-.61-.23-.2-.09-.4-.2-.5-.4-.24-.36-.49-.72-.61-1.2-.36-1.04-.41-1.47-.54-2.08-.46-2.56-.7-5.13-.55-7.77.11-1.62.33-3.29,1.16-4.91l.26-.48c.11-.17.27-.31.41-.47l.42-.46.11-.11s.01-.08.08-.02l.07-.03c.09-.04.19-.08.29-.1.39-.14.81-.12,1.19-.16l.89-.02c1.18-.01,2.34-.02,3.49-.06,1.79-.06,3.54-.3,5.28-.5.38-.05.76-.11,1.14-.15,1.43-.12,1.86,0,2.26.76.09.17.2.33.27.49.22.51-.33,1.19-1.42,1.43-3.21.77-6.59.88-9.91.99l-1.81.07c-.2,0-.11-.01-.15,0,.01-.06-.06.13-.16.31-.11.15-.16.39-.23.61l-.11.33-.07.38c-.04.26-.12.49-.13.77h-.08Z"/><path class="cls-1" d="M331.72,71.99c.58-.71,1.23-1.33,1.9-1.74.68-.39,1.35-.63,2.01-.71.66-.07,1.29.05,1.88.26.28.12.57.26.78.52.17.27.29.48.33.75.05.18.08.37.09.58.02.2.03.41,0,.65-.06.48-.21,1.02-.43,1.59-.39.95-1.05,2.18-1.27,2.54l-.91,1.62c-.3.53-.59,1.06-.82,1.57-.06.13-.11.25-.15.37l-.06.16-.06.23-.25.9c-.29,1.06-.51,2.13-.62,3.17-.21,1.35-.04,2.63-.56,4.08-.12.45-.11.4-.38.06-.22-.34-1.13-.97-1.31-1.85-.09-.78-.12-1.56-.1-2.34.04-.78.18-1.53.32-2.26.15-.73.32-1.44.5-2.13.07-.28.23-.87.39-1.22.17-.38.34-.73.53-1.06.44-.8.85-1.58,1.22-2.39l.53-1.15c.08-.16.16-.34.21-.53.02-.1.04-.21-.02-.29-.06-.08-.15-.08-.23-.12-.34-.09-.73.02-1.05.29-.1.08-.2.17-.3.27l-.14.15-.19.25c-.32.44-.62.91-.88,1.42-.8,1.52-1.43,3.21-1.81,4.93-.3,1.34-.37,2.7-.43,4.04-.01.3,0,.59-.03.88-.11,1.09-.28,1.42-.87,1.66-.13.05-.27.13-.4.16-.44.11-.83-.37-.98-1.25-.41-2.62,0-5.36.71-8.04.28-1,.62-1.99,1.05-2.97.21-.49.45-.98.72-1.46.13-.24.28-.48.43-.72l.24-.36c.1-.13.23-.37.39-.54l.05.05Z"/><path class="cls-1" d="M340.27,69.64c.52-.07,1.05-.05,1.69.22.09.01.15.07.23.11.04.1.13.12.19.18.14.11.26.21.36.32.19.2.27.44.34.66.08.22.09.48.11.74v.41s-.05.47-.05.47c-.1.72-.28,1.57-.75,2.59-.4.87-.87,1.75-1.26,2.56l-.37.73c-.1.2-.21.48-.32.72-.45.98-.88,1.96-1.27,2.95-.34.88-.58,1.79-.83,2.68-.22,1.17-.64,2.28-1.09,3.46-.14.37-.16.32-.3-.01-.11-.24-.23-.49-.33-.71-.08-.17-.15-.34-.22-.49-.04-.09-.06-.18-.11-.27,0-.09-.03-.18-.04-.28-.3-2.69.64-5.19,1.62-7.5.16-.34.29-.7.43-1.06.13-.34.35-.88.43-1.08.11-.25.19-.45.33-.7.13-.25.29-.53.42-.87.12-.3.3-.81,0-1.05-.09,0-.17-.02-.24-.02-.39.02-.71.3-1.05.66-.25.28-.5.59-.74.95l-.18.28-.29.48c-.19.33-.37.67-.54,1.01-.52,1.07-.86,2.2-1.2,3.31-.08.24-.11.49-.24.72-.43.85-.61,1.09-1.21,1.15-.13.01-.27.04-.39.04-.42,0-.67-.5-.62-1.29-.07-1.22.33-2.31.68-3.42.39-1.1.88-2.19,1.45-3.25.35-.62.82-1.42,1.27-2.09.47-.67.96-1.33,1.45-1.82.49-.53.97-.85,1.41-1.12.45-.28.85-.39,1.25-.45l-.02.09Z"/><path class="cls-1" d="M371.76,72.89c-.64.08-1.28.16-1.91.24-.23.03-.45.13-.68.16-.83.09-1.68.13-2.52.19-.37.04-.74.07-1.11.13-.47.05-.96.23-1.47-.09-.15-.09-.13-.4-.02-.79.05-.19.13-.41.21-.62.09-.19.18-.31.29-.36.4-.15.81-.29,1.23-.4.43-.08.88-.07,1.36-.04.57.04,1.1-.22,1.65-.34.61-.13,1.23-.26,1.85-.38.38-.08.77-.15,1.15-.25.58-.14,1.17-.24,1.73-.45.44-.16.82-.47,1.25-.71.09-.05.18-.12.28-.16.38-.14.57.15.77.77.05.15.1.29.13.44.12.48.06.96-.13,1.26-.61.68-1.38.88-2.19,1.09-.6.15-1.23.24-1.86.37l-.02-.06Z"/><path class="cls-1" d="M371.78,92.61c-.37.03-.76.1-1.17.22-.15.04-.27.16-.43.2-.56.17-1.21.29-1.84.4-.28.05-.54.15-.82.19-.18.02-.35.06-.53.07-.09,0-.18-.01-.27-.04-.09,0-.19-.15-.28-.21-.11-.12-.1-.24-.03-.52.04-.2.09-.4.12-.56.05-.19.1-.29.17-.35.47-.41.86-.52,1.48-.57.37-.04.65-.32,1.02-.5.4-.19.85-.37,1.31-.53.29-.1.58-.18.87-.25.44-.12.9-.16,1.33-.29.33-.09.65-.35,1-.48.08-.03.15-.08.23-.09.29-.06.39.17.45.87l.04.47c.02.51-.08,1.02-.23,1.2-.47.56-.9.63-1.35.68-.33.05-.68.06-1.03.14l-.02-.06Z"/><path class="cls-1" d="M355.31,122.8c-.78,2.84-1.64,5.65-2.57,8.45-.35,1.02-.61,2.06-1,3.07-1.38,3.54-2.92,7.07-5.34,10.21-.54.69-1.15,1.36-1.85,1.95-.7.59-1.59,1.09-2.6,1.25-.72.1-1.15.06-1.7.07-.53,0-1.06,0-1.61-.02-.56-.05-1.1-.02-1.85-.34-.38-.16-.69-.51-.83-.8-.14-.29-.26-.53-.33-.79-.12-.69-.02-.67.64-.43.18.05.35.14.55.23.2.08.42.16.56.11.15-.05.14-.11.31-.14.16-.03.39-.05.66-.05.47,0,1.01-.03,1.54-.05l.8-.03.4-.02c.14,0,.28,0,.33-.03.56-.06,1.19-.45,1.82-1.06,1.26-1.23,2.28-3.07,3.28-4.88,1.2-2.2,1.95-4.77,2.74-7.25.87-2.74,1.65-5.53,2.34-8.34.43-1.73.84-3.47,1.21-5.22.56-2.65,1.12-5.31,1.46-7.98.27-2.07.3-4.14.38-6.2.02-.45,0-.9.03-1.36.13-1.69.39-2.2,1.43-2.47.23-.06.45-.15.66-.18.68-.1,1.34.67,1.39,1.95.22,3.79-.26,7.73-.93,11.65-.51,2.91-1.14,5.81-1.85,8.69h-.08Z"/><path class="cls-1" d="M366.3,133.88c-.93,4.62-2.14,9.2-3.65,13.69-.56,1.64-1.08,3.29-1.77,4.9-1.22,2.82-2.65,5.58-4.47,8.11-1.82,2.52-4.07,4.86-7.01,6.3-1.31.62-2.71,1.02-4.1,1.19-1.39.2-2.79.24-4.16.1-1.76-.15-3.5-.47-5.17-1.02-1.67-.54-3.3-1.36-4.59-2.65-.69-.95-.46-.85.46-.62.48.08,1.09.24,1.84.35.75.1,1.58.25,2.44.53,3.09.91,6.41,1.11,9.41.6.37-.07.73-.18,1.1-.26.36-.1.69-.24,1.05-.36.34-.14.65-.32.98-.47.32-.19.64-.42.96-.62l.48-.32.45-.38c.3-.25.61-.49.91-.76.54-.59,1.16-1.1,1.66-1.76,2.58-2.98,4.19-6.98,5.6-10.87,1.53-4.32,2.69-8.81,3.67-13.34.61-2.79,1.12-5.61,1.56-8.44.66-4.29,1.25-8.62,1.58-12.93.26-3.35.3-6.65.41-9.98.03-.74.02-1.45.07-2.2.09-1.37.21-2.28.49-2.91.3-.62.66-.96,1.1-1.2.2-.11.39-.26.55-.32.28-.09.49.16.73.67.24.51.49,1.3.5,2.3.15,5.93-.09,12.26-.85,18.57-.52,4.69-1.26,9.39-2.15,14.06h-.08Z"/><path class="cls-1" d="M278.09,149.15c-1.01-2.28-1.92-4.56-2.95-6.73-.38-.79-.84-1.53-1.21-2.31-1.37-2.73-2.93-5.23-5.49-6.81-.56-.35-1.15-.68-1.76-.95-.6-.29-1.23-.55-1.85-.79-1.63-.57-3.3-.94-5-1.53-.53-.21-.46-.31.04-.58.5-.31,1.46-.71,2.56-.67.98.02,1.93.22,2.88.43.94.24,1.9.47,2.79.9,1.77.85,3.51,1.99,4.84,3.58,1.57,1.84,2.97,3.78,4.09,5.81,1.19,2.24,2.17,4.54,3.19,6.78.63,1.38,1.25,2.75,1.95,4.07,1.06,1.99,2.2,3.96,3.71,5.5,1.18,1.19,2.62,1.99,4.08,2.35.32.1.64.12.96.18,1.19.21,1.55.37,1.82,1.32.06.21.15.42.19.63.15.66-.48,1.34-1.75,1.35-1.86.03-3.84-.63-5.42-1.74-1.61-1.09-2.9-2.5-3.96-3.97-1.57-2.19-2.71-4.52-3.8-6.79l.07-.04Z"/><path class="cls-1" d="M223.83,175.89c2.2-5.44,4.56-10.82,7.07-16.12.94-1.93,1.75-3.91,2.75-5.8,3.44-6.72,7.25-13.26,11.57-19.48,1.95-2.74,3.91-5.49,6.08-8.04l1.03-1.24,1.09-1.2,1.1-1.19,1.2-1.1,1.22-1.08c.44-.32.86-.68,1.33-.96.89-.63,1.86-1.16,2.85-1.62,1.28-.5,1.18-.26.53.77-.31.54-.83,1.16-1.37,1.98-.27.41-.56.86-.9,1.27-.36.4-.74.81-1.14,1.24-5.86,5.9-10.64,12.99-15.29,20.24-2.78,4.36-5.09,9.24-7.37,14.02-2.52,5.26-4.88,10.6-7.08,16.01-1.36,3.33-2.64,6.69-3.88,10.07-1.87,5.12-3.66,10.3-5.11,15.5-1.12,4.05-1.94,8.09-2.67,12.15-.15.89-.26,1.77-.43,2.67-.57,3.33-.81,4.31-1.68,4.99-.2.15-.39.37-.59.46-.62.33-1.13-1.17-.99-3.77.22-3.83.92-7.67,1.75-11.51.84-3.84,1.89-7.68,3.04-11.49,1.72-5.66,3.62-11.29,5.8-16.79l.09.02Z"/><path class="cls-1" d="M248.24,270.47c8.05,1.54,16.51,1.55,24.87,1.02,3.06-.2,6.1-.6,9.15-.93,5.15-.6,10.3-1.35,15.42-2.27,2.56-.45,5.11-.96,7.65-1.51,1.27-.27,2.54-.56,3.8-.86l1.88-.47.93-.25.79-.23c.2-.1.32-.19.54-.49.55-.77.99-1.89,1.37-2.98.38-1.11.7-2.26,1.01-3.42.62-2.32,1.14-4.68,1.72-7.01.74-3,1.48-6.03,2.44-9.02,1.04-2.95,2.26-5.91,4.16-8.47.71-.73,1.05-1,1.1-.94.06.07-.14.51-.28,1.36-.33,1.68-.78,4.63-1.62,7.98-1.24,4.07-2.23,8.27-3.26,12.52-.54,2.12-1.08,4.26-1.74,6.43-.34,1.09-.7,2.18-1.19,3.31-.26.57-.51,1.13-.92,1.75-.09.15-.2.31-.33.47-.15.17-.21.31-.43.49-.2.17-.38.36-.59.51-.22.14-.45.26-.68.39l-.55.19-.38.11-.74.2-1.44.36c-.96.23-1.92.45-2.88.65-1.92.42-3.84.79-5.78,1.14-7.53,1.35-15.35,2.83-23.14,3.64-8.56.87-17.23,1.24-25.88.37-2.66-.31-5.31-.67-7.93-1.33-1.32-.27-2.6-.71-3.9-1.09-1.27-.49-2.56-.91-3.78-1.55-1.89-.84-3.63-2.05-5.26-3.38-1.59-1.4-2.91-3.04-4.03-4.77-2.22-3.49-3.7-7.33-4.74-11.22-1.6-6.05-2.41-12.17-2.19-18.41.04-1.37.15-2.72.34-4.11.39-2.57.97-4.26,1.59-5.37.29-.56.64-.96.94-1.26.33-.29.67-.47.98-.59.31-.1.66-.23.86-.22.36.04.25.47.03,1.26-.22.8-.62,2.01-.95,3.7-.52,2.49-.71,5.16-.71,7.84,0,2.69.16,5.41.52,8.12.7,5.41,2.04,10.86,4.44,15.68.9,1.78,1.95,3.45,3.19,4.92,1.23,1.47,2.67,2.66,4.33,3.66,3.28,2.05,7.23,3.27,11.27,4.01v.08Z"/><path class="cls-1" d="M301.33,233.57c-3.12,0-6.25.1-9.38.22-1.14.05-2.28.2-3.42.24l-6.08.2c-1.02.03-2.04.05-3.07.05-.51.01-1.04,0-1.58-.02h-.4c-.13-.02-.25,0-.47-.05l-1.13-.19c-.66-.16-1.12-.74-1.41-1.33-.16-.3-.27-.62-.36-.95-.1-.32-.14-.53-.19-.79-.19-.99-.26-1.93-.3-2.86-.07-1.2.02-2.39.21-3.57.05-.29.1-.59.17-.88.1-.29.2-.57.32-.86.22-.57.48-1.12.77-1.66.4-.66.46-.5.6.16.08.33.21.79.41,1.33.1.28.21.57.31.86.06.15.09.3.17.46.01.15.02.3.04.46.03.55.07,1.1.12,1.65.03.27.06.55.1.82l.03.81c.05,1.06.16,2.14.38,2.96.03.13,0,.07,0,.11,0,.02,0,.05,0,.08,0,.03.03.04.05.06l.04.03.36.03c1.04.09,2.23.12,3.38.17,2.8.11,5.72-.28,8.6-.41,3.17-.16,6.36-.24,9.54-.31,1.96-.02,3.92-.05,5.88-.03,2.97-.02,5.95.12,8.91.18,2.3.07,4.56,0,6.86.14.51.03,1.01,0,1.51.08,1.89.25,2.45.58,2.68,1.51.05.19.14.38.16.54.08.48-.81,1.14-2.13,1.07-3.98-.09-8.11-.19-12.27-.28-3.12,0-6.26-.05-9.4.05v-.08Z"/><path class="cls-1" d="M200.09,193.79l-7.46-32.71c-.93-3.97-1.85-7.95-2.78-11.92l-4.6-21.08c-.75-3.52-1.5-7.03-2.2-10.58l-.34-1.71c-.02-.33-.08-.69-.07-1l.15-.85.03-.11h0s-.09-.08-.04-.06l.02-.02.04-.04c.05-.05.1-.11.17-.15.13-.08.25-.16.39-.24.3-.14.55-.32.89-.42.33-.11.66-.22.98-.34l.69-.22c1.73-.54,3.47-1.02,5.22-1.48,6.18-1.63,12.39-3.27,18.52-4.89,3.94-1.01,7.89-2.04,11.87-2.98,3.97-.95,7.98-1.76,12.08-2.1,1.29-.02,1.87.07,1.87.25,0,.19-.58.51-1.55,1.09-.97.59-2.38,1.31-4.09,2.07-.86.37-1.78.79-2.79,1.13-1.01.33-2.09.64-3.22.92-8.03,1.96-16.05,4.05-24.1,6.05-4.01,1.02-8.02,2.05-12.04,3.07l-1.35.33c-.07.01-.14.02-.23.04-.09.03-.03.13-.04.2l.02.18.12.69c.38,2.04.77,4.09,1.16,6.14,1.89,9.82,4.4,19.94,6.67,29.92,2.52,10.97,5.03,21.95,7.55,32.93,1.58,6.75,3.16,13.5,4.74,20.24,2.43,10.21,4.85,20.47,7.42,30.57,2,7.85,4.16,15.49,6.31,23.2.48,1.7.95,3.35,1.43,5.06,1.74,6.35,2.01,8.44,1.56,10.03-.1.36-.18.82-.32,1.05-.46.78-1.71-1.67-3.18-6.28-4.23-13.71-7.99-28.34-11.63-43.05-2.7-10.93-5.3-21.94-7.9-32.92l.08-.03Z"/><path class="cls-1" d="M239.43,114.46c.07,1.52.16,3.05.29,4.57.04.56.18,1.1.22,1.65.14,1.96.35,3.92.52,5.88.08.87.24,1.73.4,2.58.17,1.1.36,2.2.36,3.34,0,.36-.24.36-.59.14-.34-.23-.85-.67-1.12-1.27l-.66-1.62c-.2-.55-.32-1.11-.46-1.66-.27-1.12-.49-2.25-.5-3.42-.06-1.39-.42-2.79-.61-4.19-.2-1.54-.36-3.09-.51-4.64l-.26-2.86c-.15-1.44-.21-2.89-.39-4.32-.14-1.11-.44-2.18-.66-3.27-.05-.24-.12-.47-.15-.72-.14-.9.13-1.21.84-1.46.17-.06.33-.13.49-.16.55-.13,1.07.21,1.35.84.67,1.9.92,3.93,1.15,5.98.17,1.52.22,3.06.36,4.59h-.07Z"/><path class="cls-1" d="M373.69,397.58c1.93,6.44,3.85,12.89,5.85,19.3.72,2.35,1.57,4.64,2.3,6.98,2.59,8.24,5.24,16.46,8.06,24.63,1.26,3.62,2.59,7.24,3.99,10.78.92,2.26,1.76,4.57,2.6,6.87.8,2.32,1.47,4.68,2.04,7.09.35,1.5.23,1.33-.56.26-.4-.54-.99-1.29-1.72-2.19-.69-.92-1.44-2.02-2.13-3.27-2.23-4.5-4-9.19-5.72-13.9-1.76-4.7-3.33-9.48-4.79-14.32-1.75-5.78-3.93-11.68-5.81-17.56-2.08-6.46-4.06-12.95-6.04-19.44-1.21-3.99-2.43-7.99-3.64-11.98-1.86-6.04-3.68-12.12-5.64-18.07-1.52-4.63-3.24-9.09-4.88-13.62-.36-1-.75-1.96-1.11-2.97-1.3-3.74-1.5-5.01-.87-6.12.14-.25.25-.56.4-.73.49-.57,1.65.75,2.74,3.45,3.31,7.99,6.19,16.62,8.97,25.31,2.06,6.46,4.03,12.97,6.04,19.46l-.08.03Z"/><path class="cls-1" d="M319.72,318.99c-1.03-.07-2.07-.13-3.12-.15-.38,0-.76.07-1.15.06-1.37-.09-2.74-.18-4.1-.27-.61,0-1.21-.02-1.82-.03-.77,0-1.56.07-2.32-.41-.24-.19-.2-.28,0-.61.2-.38.57-.91.99-1.08.76-.27,1.51-.38,2.27-.52.76,0,1.54.02,2.33.12.94.13,1.9-.12,2.87-.14,1.06-.03,2.13-.03,3.2-.02l1.99.03c1.01.01,2.02.1,3.05.11.79.02,1.61-.13,2.47-.1.19,0,.38-.01.57.01.71.17.84.54.66,1.36-.04.19-.07.37-.12.54-.17.55-.63,1.05-1.04,1.17-1.21.27-2.38.18-3.71.13-.97-.05-1.99-.11-3.02-.12v-.08Z"/><path class="cls-1" d="M352.4,394.24c-2.14-.07-4.3-.11-6.46-.09-.79,0-1.57.11-2.36.12-2.79,0-5.6.03-8.41-.06-1.25-.02-2.5.03-3.73.08-.8,0-1.59.03-2.39.02-.8,0-1.6-.2-2.39-.35-.49-.12-.43-.4-.01-.79.21-.2.5-.43.85-.66.18-.12.37-.23.57-.33.1-.05.21-.09.31-.15.11-.02.22-.05.33-.06l2.38-.34c.79-.09,1.59-.14,2.39-.2,1.6-.09,3.2-.18,4.83-.11,1.95.11,3.96-.19,5.95-.28,2.2-.09,4.4-.15,6.6-.15,1.36-.02,2.72.02,4.08.03,2.06.07,4.13.15,6.17.22,1.59.03,3.16-.09,4.75-.11.35,0,.69-.03,1.04,0,.32.02.59.05.81.11.22.06.39.18.53.29.28.23.41.53.5.96.04.2.1.39.11.58.05.61-.54,1.12-1.5,1.37-2.78.29-5.63.2-8.51.13-2.13-.07-4.29-.1-6.45-.13v-.08Z"/><path class="cls-1" d="M363.55,437.27c-2.52-.05-5.04-.09-7.56-.1-.92,0-1.84.1-2.76.09-3.24-.05-6.49-.05-9.74-.15-1.44-.02-2.89.04-4.31.11-.92.06-1.83.1-2.75.1-.46,0-.92.02-1.38-.06-.46-.09-.92-.18-1.39-.27-.58-.13-.51-.36-.05-.78.23-.21.56-.48.96-.78.2-.14.42-.32.65-.43.24-.1.49-.17.75-.21,1.86-.35,3.73-.5,5.6-.61,1.87-.09,3.75-.2,5.65-.05,2.27.15,4.61-.11,6.93-.16,2.54-.05,5.09-.06,7.64-.07h4.7c2.37-.04,4.76.02,7.11-.08,1.83-.07,3.62-.33,5.43-.5.4-.04.79-.11,1.19-.12.37-.02.68-.01.94.01.26.04.47.14.64.24.35.2.54.48.7.9.07.19.17.37.21.55.14.59-.46,1.16-1.55,1.53-3.22.64-6.6.77-10,.87-2.53.08-5.07.03-7.61.06v-.09Z"/><path class="cls-1" d="M305.79,40.53c1.63-.23,3.29-.6,5-1.01.87-.2,1.64-.42,2.77-.63,1.07-.16,2.18-.18,3.3-.03,2.24.29,4.41,1.49,5.85,3.18.74.84,1.29,1.79,1.71,2.76.23.49.38.98.54,1.48.11.54.26,1.07.32,1.62.19,1.6-.04,3.18-.47,4.63-.44,1.45-1.15,2.74-1.94,3.93-1.45,2.05-3.2,3.78-5.09,5.28-1.88,1.49-4.02,2.76-6.18,3.69-4.26,1.93-8.74,3.37-13.33,4.21-4.07.76-8.23,1.11-12.33,1.01-5.27-.07-10.6-1.21-15.29-3.57-1.39-.93-1.19-.78.25-.76,1.42.08,3.98.13,6.83.44.63.1,1.27.14,1.89.21.63.08,1.26.13,1.89.15.63.01,1.26.11,1.89.15l1.89.09c2.52.05,5.05.01,7.57-.29,5.02-.55,10.03-1.65,14.85-3.47.73-.25,1.44-.55,2.15-.87.72-.31,1.44-.63,2.08-.98,1.33-.71,2.6-1.58,3.79-2.55,2.37-1.93,4.41-4.36,5.5-6.97.58-1.44.8-2.93.52-4.32-.27-1.41-1.01-2.88-2.03-3.83-1.02-.98-2.37-1.57-3.84-1.62-.73-.02-1.49.02-2.25.21l-2.58.63c-2.16.52-4.39,1.01-6.71,1.19-2.31.19-4.69.03-6.96-.52-3.45-.84-6.46-2.41-9.51-3.46-1.52-.54-3.05-.92-4.57-1.05-.75-.07-1.54,0-2.31.03-.39.01-.77.11-1.15.15-.38.06-.77.1-1.14.21-4.72,1.12-8.75,4.22-11.39,8.11-.6.85-1.05,1.76-1.52,2.68-.2.44-.39.83-.56,1.2-.15.37-.28.71-.4,1.03-.28.61-.42,1.13-.62,1.54-.41.82-.69,1.31-1.22,1.69-.23.17-.47.42-.69.52-.37.17-.65-.17-.8-1.01-.17-.83-.14-2.15.27-3.77,1.23-4.81,4.35-9.27,8.66-12.28,4.3-3.03,9.92-4.6,15.52-3.5,3.99.85,7.26,2.59,10.39,3.62,1.56.53,3.06.85,4.62.98,1.56.12,3.15.03,4.78-.22l.02.09Z"/><path class="cls-1" d="M321.53,119.25l1.71-4.1c.52-1.38,1.1-2.75,1.56-4.14l.74-2.08.66-2.09c.4-1.34.8-2.89.87-3.89-.01-.06.01-.07,0-.17l-.07-.3c-.03-.18-.13-.44-.2-.66-.15-.46-.36-.96-.55-1.45-.4-.99-.84-2.01-1.23-3.04-1.4-3.65-2.65-7.53-2.85-11.65v-1.54c.01-.52.06-1.03.1-1.55,0-.25.06-.53.12-.82.05-.29.11-.57.2-.82.15-.54.35-1.02.55-1.51.84-1.9,1.9-3.59,3.05-5.22.4-.56.81-1.12,1.24-1.66.22-.27.43-.55.67-.82.11-.14.23-.27.37-.42.11-.13.28-.3.47-.46-.03,0,.29-.23.52-.29.12-.04.25-.07.37-.08.09,0,.08,0,.12,0l.36.04c.24.04.49.08.72.17.23.08.47.17.68.29.21.14.39.3.56.49.64.76.88,1.79.8,2.81-.09.64-.24.96-.34,1.33l-.34,1.07c-.66,2.06-1.23,4.13-1.66,6.21-.24,1.03-.48,2.05-.64,3.08-.06.51-.17,1.03-.19,1.53-.02.25-.06.52-.05.76v.38s0,.19,0,.19c-.02.04.05.05-.04.1l-.03.1c-.14.66-.18,1.01-.22,1-.05,0-.14-.3-.62-.8-.85-1.04-1.59-3.47-1.34-6.14.22-1.68.65-3.29,1.08-4.88.22-.79.46-1.58.7-2.35l.58-1.85s.02-.03,0-.05c0,0-.01-.02-.02-.03,0,0-.03,0-.06,0h0s0,0,0,0c0-4.4,0-1.2,0-2.18v.03s0,.06,0,.06c0,.17.06.33.15.47.1.14.23.25.39.33.16.13.35.45.53.66.27.33.15.18.17.22h0s-.02.02-.02.02c-.36.34-.83.89-1.24,1.39-.43.51-.84,1.06-1.24,1.6-.8,1.09-1.55,2.23-2.17,3.37-.3.57-.59,1.15-.79,1.7l-.15.41-.1.38c-.08.23-.09.62-.14.93-.32,2.43.01,5.04.71,7.58.33,1.28.78,2.55,1.24,3.81.49,1.26,1.02,2.51,1.54,3.79.29.71.58,1.42.84,2.18.13.39.27.77.37,1.24l.08.34c.02.13.03.29.04.43l.02.44c0,.13-.03.22-.04.33l-.18,1.26c-.07.41-.18.77-.26,1.16-.18.77-.37,1.53-.61,2.26-.85,2.97-1.96,5.81-3.07,8.65-1.42,3.47-2.92,6.9-4.56,10.27-2.45,5.11-5.22,10.09-8.17,14.9-1.18,1.85-2.29,3.72-3.54,5.5-1.17,1.84-2.52,3.55-3.86,5.29-.6.76-1.25,1.46-1.91,2.19-.63.66-1.12,1.23-1.63,1.62-.5.4-.92.7-1.3.91-.75.43-1.3.52-1.87.42-.26-.05-.56-.06-.76-.15-.66-.33.04-1.72,1.78-3.47,2.44-2.8,4.87-5.74,7.05-8.99,2.26-3.18,4.31-6.59,6.33-10.04,2.94-5.16,5.64-10.52,7.96-16.02l.08.02Z"/><path class="cls-1" d="M334.78,132.69c-2.99,7.37-6.12,14.71-9.6,21.9-1.28,2.62-2.51,5.27-3.93,7.82-2.51,4.5-5.22,8.93-8.6,12.95-1.7,2-3.56,3.91-5.81,5.44-.56.38-1.17.72-1.77,1.05-.64.27-1.27.61-1.93.76-1.3.44-2.62.66-3.93.86-4.67.51-9.31.21-13.79-.51-2.89-.44-5.76-1.01-8.57-1.79-2.8-.8-5.63-1.68-8.13-3.29-.72-.63-1.01-.89-.97-.91.04-.03.45.16,1.24.25.8.06,1.87.24,3.19.34,1.29.17,2.77.46,4.35.84,5.6,1.34,11.35,2.28,17.01,2.45,2.82.07,5.65-.07,8.21-.78,2.52-.6,4.68-2.27,6.73-4.23,2.42-2.37,4.49-5.28,6.39-8.31,1.88-3.05,3.58-6.25,5.21-9.46,3.57-7.06,6.73-14.37,9.71-21.76,1.83-4.55,3.61-9.12,5.33-13.72,1.32-3.48,2.59-6.98,3.99-10.46.69-1.74,1.42-3.46,2.04-5.15.3-.85.56-1.68.72-2.52.15-.85.24-1.69.13-2.41-.08-.57-.28-1.09-.59-1.66l-1.08-1.84c-.76-1.33-1.31-2.83-1.61-4.31-.32-1.49-.48-3.06-.34-4.6.12-1.55.47-3.06.93-4.49.41-1.27.88-2.45,1.41-3.62,2.04-4.27,2.81-5.39,4.04-5.98.28-.13.59-.33.84-.38.83-.19.72,1.91-.62,5.13-.96,2.38-2.01,4.67-2.57,6.94-.59,2.26-.64,4.46-.08,6.66.25,1.12.65,2.07,1.19,3.07.28.51.62,1.05,1,1.76.38.7.76,1.64.92,2.61.17.96.11,1.9.02,2.7-.09.78-.25,1.58-.46,2.32-.42,1.49-.95,2.78-1.45,4.04-1.53,3.7-2.93,7.33-4.36,11.1-1.45,3.74-2.9,7.48-4.35,11.22l-.08-.02Z"/><path class="cls-1" d="M370.9,87.68c-.22,1.81-.65,3.58-1.42,5.3-.38.86-.85,1.7-1.49,2.49-.61.79-1.42,1.54-2.45,2.03-.35.21-.77.3-1.17.44-.4.11-.77.14-1.15.2-.79.03-1.64,0-2.43-.32-1.42-.51-2.43-1.59-3.1-2.64-.68-1.07-1.11-2.18-1.43-3.29-.32-1.11-.52-2.2-.64-3.35-.1-1.13-.12-2.24-.1-3.34.08-1.95.18-3.92.59-5.83.28-1.22.54-2.48,1.12-3.64.57-1.15,1.3-2.31,2.46-3.01.87-.27.65-.26.57.51-.04.38-.09.88-.1,1.45-.03.56-.12,1.13-.26,1.73-.16.52-.22,1.08-.36,1.61-.14.53-.24,1.08-.34,1.63-.08.56-.17,1.11-.23,1.68-.1.56-.16,1.13-.24,1.69-.23,2.28-.33,4.6,0,6.81.34,2.67,1.87,5.44,3.92,5.33.28.03.61-.04.91-.07.13-.04.26-.08.4-.12.13-.04.25-.13.39-.18.51-.29,1-.73,1.42-1.29.82-1.14,1.41-2.6,1.76-4.11.45-1.87.59-3.81.32-5.73-.19-1.48-.48-2.96-.92-4.38-.44-1.4-1.02-2.79-1.9-3.76-.68-.76-1.48-1.14-2.23-1.01-.91.13-1.45.54-1.94,1.23-.21.32-.4.68-.62,1.07-.79,1.52-1.27,2.09-2.34,2.03-.24,0-.49.01-.72-.04-.74-.17-1-1.09-.58-2.55.35-1.07.76-2.31,1.84-3.47.54-.57,1.26-1.09,2.07-1.43.83-.34,1.64-.46,2.5-.45.93.03,1.9.28,2.67.74.38.23.77.47,1.05.75.31.27.61.55.83.85.98,1.17,1.54,2.39,2,3.58.65,1.78,1.03,3.54,1.26,5.32.24,1.73.31,3.7.11,5.52h-.08Z"/><path class="cls-1" d="M385,83.92c-.33,1.76-.9,3.43-1.76,5-.85,1.56-1.98,3.08-3.74,4.15-.35.17-.67.36-1.04.49-.37.12-.76.27-1.12.31-.71.15-1.55.15-2.38-.06-.73-.23-1.44-.61-1.95-1.14-.52-.51-.9-1.08-1.17-1.63-.55-1.12-.81-2.2-1.03-3.25-.2-1.07-.37-2.01-.49-3.14-.1-1.08-.11-2.14-.08-3.2.09-1.87.18-3.75.57-5.59.27-1.17.52-2.37,1.08-3.48.55-1.1,1.26-2.21,2.39-2.88.85-.24.63-.24.57.51-.03.37-.07.86-.07,1.4-.01.54-.09,1.08-.22,1.66-.15.49-.2,1.03-.33,1.53-.13.51-.23,1.03-.32,1.56-.08.53-.16,1.06-.22,1.6-.1.53-.16,1.07-.23,1.61-.12,1.08-.19,2.18-.21,3.27,0,.55,0,1.08.03,1.62l.06.79.09.87c.14,1.36.42,2.73.95,3.74.58,1.04,1.12,1.36,2.15,1.31.62-.04,1.07-.21,1.6-.53.52-.3,1-.79,1.43-1.32.87-1.08,1.54-2.42,1.99-3.82.28-.86.49-1.75.58-2.65.11-.9.07-1.74-.06-2.7-.18-1.41-.47-2.83-.89-4.17-.42-1.33-.98-2.65-1.82-3.57-.65-.72-1.4-1.06-2.1-.92-.86.13-1.35.52-1.8,1.18-.2.3-.37.65-.58,1.02-.75,1.44-1.22,1.99-2.28,1.91-.24-.01-.49,0-.71-.05-.73-.18-1.01-1.07-.61-2.47.33-1.02.71-2.22,1.76-3.35.52-.55,1.21-1.07,2-1.4.81-.34,1.6-.45,2.42-.46.45.04.92.05,1.36.19.42.15.9.27,1.25.51.37.22.76.45,1.03.72.3.26.6.54.81.82.95,1.13,1.5,2.31,1.95,3.46.62,1.71.99,3.4,1.21,5.1.11.87.2,1.66.21,2.64,0,.96-.06,1.88-.21,2.77h-.08Z"/><path class="cls-1" d="M254.18,152.82c-.52,3.01-.78,6.07-.67,9.11.03.55.08,1.1.13,1.66.06.55.17,1.09.23,1.64.07.98.29,1.91.47,2.87.17.95.46,1.81.79,2.72.69,1.78,1.64,3.49,2.82,5.01,1.03,1.37,2.29,2.57,3.7,3.45,1.84,1.08,3.75,1.92,5.98,2.17.69.09.67.33.08.74-.3.18-.74.53-1.32.7-.29.1-.62.2-.97.29-.35.07-.73.08-1.12.07-1.39-.03-2.75-.48-3.93-1.13-1.21-.63-2.27-1.45-3.26-2.33-.48-.45-.94-.92-1.38-1.41-.4-.52-.81-1.03-1.15-1.58-.73-1.07-1.3-2.24-1.82-3.42-.57-1.42-1.16-2.92-1.54-4.44-.18-.75-.39-1.5-.54-2.25-.12-.76-.23-1.52-.35-2.27-.35-3.33-.21-6.67.2-9.93l.2-1.51.27-1.49c.16-1,.39-1.98.62-2.96.7-2.98,1.67-5.88,2.75-8.72.89-2.18,1.66-4.39,2.83-6.48.23-.47.51-.92.79-1.37,1.06-1.69,1.84-1.92,2.71-1.66.21.06.43.1.6.19.3.15.42.47.4.89-.02.42-.15.97-.49,1.5-1.8,3.4-3.49,7.09-4.75,11.01-.96,2.9-1.73,5.9-2.17,8.95h-.09Z"/><path class="cls-1" d="M272.15,223.2c-4.59.15-9.1.07-13.63.05-1.65-.01-3.29.05-4.94.03-5.8-.09-11.6-.24-17.38-.16-2.57.02-5.14.2-7.67.38-3.26.22-6.5.6-9.67.99-1.07-.14-.96-.14-.25-.88.72-.73,2.26-1.55,4.16-1.93,3.38-.63,6.75-1.04,10.13-1.11,3.38-.12,6.76-.13,10.15-.03,4.05.12,8.26-.07,12.4-.06,4.54,0,9.09.06,13.61-.03,1.39-.03,2.78-.07,4.15-.15.68-.05,1.37-.09,2.03-.18.64-.06,1.42-.22,1.61-.32l.11-.06c.11-.08.18-.2.23-.33.03-.07.05-.12.07-.2.03-.09.07-.2.09-.32.12-.46.2-.95.28-1.44.15-1,.26-2.02.35-3.05.19-2.06.32-4.13.43-6.19.18-3.27.2-6.5.47-9.77.06-.72.1-1.43.2-2.16.48-2.68.97-3.51,1.82-3.87.19-.08.4-.21.57-.24.6-.08.74,1.05.62,2.94-.35,5.74-.72,11.74-1.09,17.77-.1,1.34-.21,2.68-.38,4.06-.09.69-.19,1.39-.34,2.13l-.13.57c-.06.19-.1.4-.22.74-.22.62-.59,1.16-1.04,1.6l-.6.33c-.19.12-.4.22-.65.27-.54.17-.68.18-.98.24-.56.11-1.05.16-1.56.22-1,.1-1.97.16-2.94.21v-.07Z"/><path class="cls-1" d="M338.35,350.78c-1.84-.26-3.68-.57-5.54-1-.93-.21-1.86-.46-2.83-.79-.48-.17-.97-.35-1.52-.63l-.42-.22c-.16-.1-.33-.24-.49-.36-.36-.22-.58-.58-.86-.88l-.45-.8c-.14-.23-.24-.48-.35-.74-.23-.5-.39-1.03-.53-1.57-.25-1.08-.33-2.2-.23-3.27.19-2.12.97-3.97,1.37-5.47.08-.28.12-.52.16-.76l.02-.31c.01-.11,0-.31.01-.46l.02-1.97c.01-1.31.03-2.62.07-3.93.27-9.24.74-18.48,1.06-27.72.14-4.1.2-8.22.24-12.29.09-5.23.02-10.48.82-15.7.27-1.63.28-1.41.6-.03.34,1.38,1.11,3.93,1.27,6.94.06,2.67.13,5.34.15,8.01-.02,2.67-.05,5.34-.07,8.01-.08,5.35-.21,10.7-.44,16.08-.25,6.43-.24,13.14-.38,19.72l-.05,1.94-.02.97c0,.17,0,.29-.02.51l-.05.63c-.25,1.58-.75,2.77-1.07,3.94-.34,1.16-.5,2.26-.42,3.32.04.53.16,1.04.32,1.55l.31.75.36.66c.12.19.24.26.65.47.39.18.82.33,1.28.48.92.29,1.89.51,2.87.72,4.26.85,8.69,1.3,13.08,1.49,1.66.06,3.33.09,4.98.04.83-.02,1.65-.07,2.46-.14.77-.07,1.74-.21,2.05-.3.23-.05.46-.12.67-.23.21-.11.4-.29.42-.54.11-.48-.17-.94-.52-1.26-.08-.09-.18-.16-.27-.24-.09-.08-.17-.14-.36-.26-.31-.22-.64-.41-.99-.6-.68-.38-1.42-.71-2.17-1.02-4.71-1.87-9.75-2.78-14.76-3.74-1.11-.19-2.2-.38-3.32-.58-4.14-.78-5.45-1.29-6.12-2.51-.15-.27-.37-.57-.42-.83-.16-.85,1.54-1.1,4.65-.71,4.58.61,9.29,1.43,14.04,2.67,2.37.62,4.76,1.34,7.16,2.32,1.2.51,2.41,1.06,3.65,1.86l.47.31c.17.09.43.36.64.54l.67.6c.21.21.36.45.54.68.4.44.56.96.79,1.46.11.52.25,1.04.17,1.57,0,.4-.12.78-.21,1.16-.03.09-.04.2-.08.28l-.16.25-.32.48c-.39.65-1.16,1.02-1.92,1.37-.41.15-.85.25-1.27.38-.21.07-.44.11-.65.14l-.45.08c-.52.09-1,.14-1.5.19-1.95.18-3.83.2-5.7.17-3.74-.07-7.42-.38-11.11-.85v-.09Z"/><path class="cls-1" d="M114.28,436.49s-1.88-3.74.98-9.49c2.86-5.75,5.67-9.27,8.69-11.56,3.01-2.29,10.57-3.12,10.57-3.12,0,0,6.85,1.7,13.19,9.33,6.34,7.62,6.54,9.33,6.54,9.33,0,0-4.67,5-3.9,8.48s-6.78,0-6.78,0c0,0-7.15-5.38-13.18-4.7s-16.11,1.73-16.11,1.73Z"/><path class="cls-1" d="M186.43,432.43s1.07-4.71.72-7.43-.72-8.66-.72-8.66c0,0,21.17,8.45,24.52,12.19,3.35,3.75,10.36,10.36,10.36,10.36,0,0-.38,5.41-4.57,7.09-4.19,1.69-12.87,4.61-12.87,4.61l-6-.24s1.21-4.5,0-6.82c-1.21-2.32-7.34-8.48-7.34-8.48l-4.1-2.63Z"/><path class="cls-1" d="M160.69,452.07c-1.55-.24-11.64,3.79-14.14,7.08s-4.03,6.21-4.12,8.76.76,4.95.76,4.95c0,0,32.31,7.54,32.74,7.58s8.6,0,8.6,0c0,0-3.26-8.42-2.64-11.25s4.55-10.79,4.55-10.79l-13.32-1.81-12.42-4.53Z"/><path class="cls-1" d="M145.74,420.04c-1.3-1.27-2.75-2.4-4.31-3.37-.57-.35-1.19-.6-1.79-.91-2.08-1.1-4.35-1.95-6.7-2.36-1.04-.15-2.09-.24-3.1-.13-.66.05-1.27.24-1.91.34-.32.06-.64.13-.95.22-.15.06-.34.06-.52.07-.18.02-.34.08-.51.14-.42.14-.42.07-.24-.33.08-.22.25-.45.39-.92.19-.38.51-.71.91-.98.36-.22.72-.46,1.12-.59.39-.13.8-.24,1.2-.33.8-.17,1.62-.26,2.42-.27,1.61.03,3.13.43,4.58.94,1.73.63,3.56,1.13,5.24,1.97,1.84.91,3.55,2.05,5.13,3.32.98.79,1.89,1.64,2.77,2.53,1.32,1.37,2.48,2.89,3.5,4.49.8,1.24,1.62,2.49,2.18,3.94.13.31.26.62.35.96.15.62.18,1.05.03,1.36-.19.32-.5.5-.89.65-.18.07-.34.15-.5.19-.27.07-.52-.01-.83-.19-.33-.17-.62-.43-.76-.78-.88-2.04-1.9-3.98-3.28-5.9-1.02-1.41-2.19-2.78-3.56-4l.05-.06Z"/><path class="cls-1" d="M139.96,438.02c-.97-.43-1.97-.84-2.99-1.15-.51-.19-1.02-.33-1.54-.47-.52-.15-1.04-.28-1.58-.36-.78-.17-1.56-.16-2.35-.25-.69-.09-1.39-.07-2.09-.12-.7.01-1.39.04-2.11.08-1.47.13-2.92.28-4.35.52-1.27.22-2.51.57-3.67,1.03-1.46.62-2.95,1.23-3.89,2.33-.29.33-.57.24-.66-.35-.13-.59.18-1.7,1.03-2.48,1.48-1.39,3.26-2.01,4.97-2.54,1.73-.5,3.48-.82,5.23-.97,1.02-.1,2.14-.24,3.25-.37l1.68-.11c.56-.02,1.12,0,1.68.02,2.44.15,4.86.64,7.14,1.48.7.26,1.4.52,2.07.84l1.02.46.99.52c1.98,1.06,3.84,2.35,5.58,3.74,1.35,1.08,2.76,2.07,4,3.31.26.28.55.53.8.83.47.55.66,1,.68,1.39.03.38-.1.7-.36,1.05-.12.16-.22.33-.35.46-.43.43-1.22.3-2.05-.24-1.11-.9-2.2-1.79-3.24-2.75-.54-.45-1.09-.9-1.64-1.36-.58-.42-1.11-.9-1.71-1.29-1.73-1.24-3.57-2.37-5.55-3.19l.03-.08Z"/><path class="cls-1" d="M151.61,457.55c-1.31.75-2.55,1.56-3.66,2.53-.4.35-.72.78-1.08,1.15-1.3,1.31-2.45,2.84-3.06,4.62-.26.78-.38,1.62-.4,2.42.09,1.04.08,1.91.25,3.07.08.36.04.38-.37.31-.2-.04-.52-.1-.91-.24-.2-.07-.36-.18-.54-.31-.09-.06-.16-.14-.27-.21-.06-.09-.14-.17-.21-.26-.21-.33-.47-.66-.55-1.03-.09-.36-.15-.73-.19-1.09-.08-.73-.06-1.42.01-2.12.26-1.37.79-2.67,1.54-3.78.89-1.33,1.66-2.76,2.78-3.9,1.21-1.24,2.58-2.28,3.98-3.18.86-.56,1.75-1.06,2.63-1.56,1.32-.74,2.72-1.44,4.17-2.06,1.13-.48,2.28-1.04,3.67-1.18.3-.04.61-.05.92-.04,1.17.14,1.48.57,1.38,1.38-.02.19-.03.38-.08.56-.18.61-.69.93-1.21,1.03-.4.08-.77.17-1.15.3-.38.11-.75.22-1.15.36-.79.28-1.63.65-2.5,1.08-1.27.65-2.7,1.42-3.97,2.22l-.05-.06Z"/><path class="cls-1" d="M185.12,464.05c-.48,1.08-.82,2.29-1.01,3.56-.07.46-.03.94-.08,1.41-.22,1.69-.37,3.41-.13,5.05.11.73.36,1.42.69,2.04.38.82.77,1.6,1.25,2.47.14.28-.04.48-.49.58-.43.1-1.25.13-1.86-.29-.27-.18-.52-.38-.74-.61-.2-.24-.42-.47-.6-.73-.36-.52-.54-1.1-.74-1.67-.35-1.14-.5-2.3-.46-3.44.06-1.36-.19-2.68-.1-4.03.11-1.48.37-2.98.83-4.43.28-.89.65-1.76,1.09-2.6.68-1.28,1.61-2.39,2.63-3.39.8-.77,1.59-1.59,2.64-2.18.23-.13.45-.28.7-.37.47-.16.82-.13,1.07.02.26.15.42.4.56.77.06.17.14.33.18.49.13.55-.13,1.09-.49,1.55-1.15.99-2.15,1.82-3.12,2.95-.7.83-1.29,1.75-1.71,2.87l-.08-.02Z"/><path class="cls-1" d="M187.69,418.88c.27,1.01.46,2.02.56,3.03.05.37.15.72.16,1.09.03,1.31-.1,2.6-.39,3.85-.1.55-.2,1.11-.27,1.66-.18.68-.28,1.43-1.03,1.91-.2.16-.31.08-.54-.18-.16-.19-.33-.38-.46-.53-.09-.1-.2-.22-.26-.32-.05-.1-.08-.19-.08-.29-.02-.33-.09-.66-.08-.97.05-.3.07-.61.12-.91.08-.6.19-1.21.32-1.84.21-.76-.02-1.55-.11-2.31-.1-.85-.26-1.7-.5-2.53l-.23-.77-.3-.75c-.33-.74-.68-1.49-1.19-2.12-.21-.23-.45-.44-.7-.63-.26-.18-.54-.34-.79-.51-.11-.08-.24-.13-.35-.2-.38-.3-.31-.61.1-1.28.1-.15.18-.31.28-.46.34-.49.83-.72,1.33-.61,1.38.44,2.4,1.54,3.16,2.74.59.89.97,1.89,1.31,2.88l-.07.03Z"/><path class="cls-1" d="M214.44,448.7c-1.33.57-2.67,1.08-4.04,1.5-.49.17-.97.38-1.47.5-1.78.46-3.6.7-5.4.85-.8.09-1.59.17-2.38.28-.51.06-1.01.12-1.53.12-.26,0-.51-.02-.77-.05-.26-.02-.51-.17-.76-.25-.32-.14-.27-.36-.01-.74.13-.19.31-.44.52-.7.21-.23.46-.37.73-.44.96-.27,1.91-.32,2.87-.48.96-.13,1.92-.25,2.9-.35,1.18-.11,2.33-.57,3.47-.95,1.26-.41,2.51-.87,3.72-1.42l1.12-.52,1.09-.58c1.08-.61,2.16-1.26,3.12-2.05.73-.63,1.32-1.39,1.91-2.13l.38-.5c.5-.59.85-.58,1.52-.19.15.09.32.17.46.28.48.34.61.92.33,1.51-.91,1.68-2.36,3.05-3.96,4.18-1.18.87-2.49,1.54-3.79,2.19l-.04-.06Z"/><path class="cls-1" d="M191.78,453.45c2.52-1.25,4.42-3.34,4.72-5.83.18-1.24-.08-2.57-.63-3.85-.22-.66-.66-1.26-.99-1.89-.46-.58-.83-1.2-1.37-1.77-1.47-1.69-3.29-3.1-5.15-4.44-3.3-2.36-7.02-4.23-10.92-5.55-3.89-1.31-8.01-2.08-12.08-1.92-3.6.14-7.2,1.19-9.96,3.32-.92.73-1.59,1.38-2.06,2.31-.48.91-.76,1.97-.9,3.05-.22,2.17-.14,4.44.37,6.69.07,1.53.27,1.32-.83.39-.55-.47-1.14-1.28-1.74-2.36-.29-.55-.51-1.18-.7-1.86-.08-.35-.15-.71-.23-1.08-.01-.38-.05-.76-.02-1.16.06-1.4.3-2.83.86-4.23.28-.7.63-1.39,1.11-2.03.22-.33.48-.64.77-.93.29-.32.55-.53.82-.76,2.11-1.85,4.7-3.02,7.3-3.72,5.27-1.32,10.63-.78,15.57.6,5.9,1.7,11.85,4.23,16.82,8.21,1.36,1.09,2.64,2.3,3.8,3.65,1.12,1.41,2.22,2.89,2.86,4.68.66,1.75.96,3.74.62,5.67-.33,1.93-1.28,3.71-2.55,5.1-1.58,1.71-3.56,2.89-5.61,3.66-2.06.77-4.21,1.18-6.3,1.41-6.39.66-12.85-.23-18.85-2.28-4.65-1.6-9.1-4.03-12.56-7.69-.77-.8-1.48-1.63-2.13-2.55-.28-.44-.55-.84-.77-1.22-.2-.39-.39-.74-.56-1.07-.29-.67-.45-1.25-.54-1.73-.18-.97-.09-1.58.18-2.11.12-.24.22-.53.35-.69.49-.52,1.33.89,2.86,3.04,2.13,3.28,5.15,6.03,8.66,8.05,1.75,1.02,3.62,1.81,5.6,2.49,1.97.67,4.01,1.23,6.08,1.6,3.08.58,6.24.81,9.36.68,1.55-.08,3.13-.25,4.59-.56,1.47-.25,2.84-.79,4.11-1.4l.05.08Z"/><path class="cls-1" d="M145.64,406.6c8.28-.57,16.57.25,24.58,2.19l2.99.79,2.95.91c1.93.63,3.85,1.3,5.76,2,3.82,1.41,7.59,2.95,11.28,4.67,5.4,2.5,10.67,5.32,15.6,8.71,4.35,2.98,8.45,6.35,12.11,10.18.91.95,1.82,1.91,2.7,2.99.84,1.08,1.63,2.19,2.33,3.35,1.4,2.32,2.54,4.79,3.36,7.38.81,2.59,1.3,5.31,1.29,8.07-.03,2.75-.62,5.6-1.93,8.07-.35.6-.61,1.26-1.03,1.81l-1.22,1.69-1.41,1.51c-.45.52-1.02.91-1.53,1.37-2.11,1.72-4.44,3.13-6.89,4.17-4.33,1.92-8.9,3.06-13.46,3.89-4.58.8-9.15,1.36-13.77,1.58-11.8.46-23.81-.91-34.89-5.02-3.37-1.52-2.84-1.45.25-1.03,3.13.38,8.69,1.05,15.27,1.85,5.81.78,11.67,1.22,17.5,1.06,2.93-.07,5.78-.29,8.73-.66,2.92-.35,5.81-.78,8.66-1.39,2.84-.6,5.63-1.36,8.3-2.37,2.66-1.01,5.22-2.26,7.41-3.92,2.2-1.65,4.02-3.69,5.21-6.08,1.26-2.33,1.64-5.05,1.53-7.81-.17-3.31-1.15-6.67-2.66-9.79-.77-1.55-1.66-3.06-2.68-4.47-.52-.69-1.05-1.38-1.63-2.02-.57-.65-1.24-1.29-1.85-1.94-2.54-2.56-5.29-4.92-8.19-7.1-2.91-2.16-5.97-4.13-9.09-5.96-6.88-4.01-14.23-7.24-21.78-9.95-3.79-1.36-7.56-2.59-11.44-3.45-3.88-.88-7.82-1.47-11.79-1.76-4.88-.37-9.8-.23-14.64.42-2.41.37-4.82.8-7.15,1.48-2.35.65-4.66,1.42-6.76,2.51-1.6.83-3.12,1.82-4.52,2.95-1.39,1.15-2.64,2.46-3.72,3.88-2.18,2.85-3.56,6.28-3.96,9.84-.62,7.22,1.54,14.67,5.65,20.67,3.14,4.74,7.3,8.7,11.85,12.02,4.55,3.34,9.55,6.03,14.75,8.25,2.29.98,4.6,1.78,6.98,2.59,4.43,1.44,7.41,2.15,9.49,2.74,1.04.31,1.85.57,2.53.81.67.26,1.21.51,1.68.78.43.24,1.01.51,1.26.72.42.36-.35.55-2.11.56-1.75-.03-4.52-.26-7.96-1.06-5.11-1.16-10.18-2.85-15.1-5.04-4.92-2.19-9.7-4.9-14.15-8.21-4.42-3.34-8.53-7.28-11.76-12.01-3.27-4.68-5.56-10.22-6.35-16.01-.13-1.08-.27-2.15-.29-3.24-.02-.54-.06-1.08-.05-1.63l.07-1.69c.18-2.25.69-4.48,1.5-6.58,1.61-4.24,4.54-7.86,8.01-10.59,1.74-1.37,3.64-2.53,5.64-3.45,2.03-.92,4.03-1.6,6.07-2.19,4.08-1.17,8.26-1.85,12.44-2.17l.03.09Z"/><path class="cls-1" d="M260.83,130.11c1.11-.55,2.33-.88,3.58-.93.45-.02.92-.04,1.37.04.8.16,1.58.49,2.23.9.66.4,1.18.89,1.67,1.38.45.41.85.83,1.23,1.29.51.55.99,1.14,1.41,1.77.13.2.08.2-.14.16-.22-.05-.67-.07-1.11-.21-.74-.28-1.51-.48-2.14-.85-.6-.43-1.18-.76-1.65-1.19-.6-.51-1.33-.54-2.05-.56-.79-.03-1.65.05-2.48.37-.51.19-1,.43-1.45.76-.69.49-1.32,1.12-1.82,1.84-.39.57-.56,1.24-.83,1.87-.06.14-.09.28-.16.42-.25.5-.46.61-1.02.54-.13-.02-.25-.03-.37-.05-.4-.09-.65-.45-.64-.94-.01-1.48.53-2.97,1.48-4.28.75-.93,1.72-1.76,2.83-2.37l.04.06Z"/><path class="cls-1" d="M292.77,85.72c.51,2.03,1.86,3.94,3.73,4.93,2.11,1.11,4.54.87,6.49-.48.55-.38.81-1.1.45-1.71-.32-.55-1.15-.83-1.71-.45-.22.15-.44.29-.67.42-.1.05-.2.11-.3.15.16-.07-.19.07-.19.07-.2.07-.4.13-.6.17-.03,0-.34.06-.19.04s-.16.01-.19.01c-.21.01-.42,0-.63-.01-.15,0,.18.04-.06,0-.11-.02-.22-.04-.33-.07-.18-.05-.36-.11-.53-.17-.32-.11.19.11-.11-.05-.08-.05-.17-.08-.25-.13-.16-.09-.32-.19-.48-.3-.07-.05-.2-.15-.07-.04-.09-.07-.18-.15-.26-.22-.14-.13-.28-.26-.41-.41-.08-.09-.15-.17-.23-.26-.14-.17.02.04-.05-.07-.24-.33-.45-.68-.63-1.05-.01-.03-.14-.31-.08-.17s-.06-.15-.07-.18c-.08-.22-.15-.44-.2-.67-.17-.65-.9-1.05-1.54-.87s-1.04.88-.87,1.54h0Z"/><path class="cls-1" d="M291.98,75.46c-.14.11.22-.15.26-.18.12-.08.25-.16.38-.23s.26-.14.39-.21c.08-.04.15-.07.23-.11-.08.04-.09.04,0,0,.3-.11.6-.21.91-.29.12-.03.25-.06.37-.08.08-.02.17-.03.25-.04-.12.01-.11.01.05,0,.3-.03.59-.05.89-.04.13,0,.25,0,.38.01.04,0,.52.05.3.02.29.04.58.1.87.18.12.03.24.07.36.11.04.01.47.18.29.1.14.06.27.12.4.19.06.03.11.06.17.09-.07-.07-.05-.05.06.06-.28-.27-.21-.64.23-1.1.13-.05.15-.06.06-.03-.09.02-.07.02.07,0-.09,0-.18.01-.27.01-.76.03-1.51.03-2.27,0-1.53-.07-2.98-.28-4.48-.62-.66-.15-1.35.2-1.54.87-.17.63.21,1.39.87,1.54,1.56.36,3.14.59,4.74.69.75.05,1.51.06,2.27.04s1.64-.04,2.21-.65c.72-.77.51-1.92-.22-2.6-.52-.49-1.26-.77-1.92-1-1.24-.42-2.58-.5-3.88-.32-1.56.21-2.95.84-4.18,1.81-.53.42-.44,1.33,0,1.77.53.53,1.23.42,1.77,0h0Z"/><path class="cls-1" d="M393.98,67.98c.03.23-.25.33-.68.36-.14.01-.5-.11-.53-.19-.07-.15-.14-.31-.19-.45-.03-.09.05-1.37.06-1.83,0-.44.09-.86.2-1.26.2-.84.55-1.62.88-2.41.08-.17.18-.33.32-.47.46-.49.77-1.05,1.04-1.64.05-.1.12-.18.08-.34-.03-.12.16-.58.44-.99.29-.4.61-.79.72-.85.52-.32.99-.67,1.48-.99.07-.05.1-.14.24-.11.34.07.41-.09.54-.2.17-.16.39-.28.64-.38.12-.05.32-.02.49,0,.16,0,.41.33.42.39.02.17.22.24.35.35.04.04.1.09.13.12.05.08-.17,1.59-.26,1.67-.04.02-.96,1.6-1.01,1.81-.04.11-.15.15-.25.21-.03,0-.17.37-.35.7-.18.32-.35.66-.37.68-.21.22-.28.52-.67.63-.08.02-.1.08-.13.13-.25.45-.61.84-.93,1.25-.17.21-.26.46-.4.69-.02.04-.08.07-.12.1-.05.04-.1.08-.13.14-.28.56-.74,1.05-.96,1.66-.06.13-.59.68-.63.85-.03.09-.44.28-.42.38Z"/><path class="cls-1" d="M398.21,71.54c-.02.22-.32.1-.78-.22-.15-.1-.5-.49-.51-.58-.03-.17-.05-.34-.05-.49,0-.09.54-.95.72-1.25.17-.3.4-.53.65-.74.5-.43.99-.87,1.52-1.27.12-.09.25-.16.4-.19.51-.13.93-.4,1.32-.72.07-.05.15-.08.16-.21.02-.24,1.26-.84,1.45-.84.48-.02.93-.09,1.39-.13.06,0,.11-.06.21.02.23.19.33.1.46.07.18-.05.37-.07.57-.06.1,0,.24.11.36.19.11.07.22.45.21.49-.03.14.1.29.17.44.02.05.05.11.06.16.02.09-.62,1.11-.71,1.16-.03,0-1.2.84-1.3.98-.06.07-.16.05-.25.06-.05,0-.89.79-.94.78-.22.08-.37.28-.7.19-.06-.02-.1.02-.14.04-.33.23-.72.36-1.09.53-.19.08-.34.23-.52.34-.03.02-.08.01-.12.02-.05.01-.11.01-.14.04-.39.3-.86.48-1.19.86-.08.08-.67.22-.74.33-.05.06-.47-.06-.48.03Z"/><path class="cls-1" d="M398.58,76.83c-.13.05-.17-.15-.15-.48,0-.11.11-.4.15-.43.09-.06.17-.13.25-.16.05-.02.7,0,.92-.02.22-.01.42.03.62.07.41.09.82.18,1.22.27.09.02.17.06.25.12.27.19.57.28.89.33.05,0,.1.03.17-.02.11-.08.95.12,1.04.2.27.22.47.37.69.55.03.03.08.01.09.1.02.21.11.2.19.24.11.06.21.12.3.22.05.05.07.17.1.27.03.09-.09.35-.12.37-.08.07-.08.21-.11.32-.01.04-.03.09-.04.12-.03.07-.83.33-.9.3-.01,0-.97-.16-1.12-.18-.06,0-.1-.07-.15-.11-.02-.02-.81-.16-.84-.18-.15-.08-.32-.08-.43-.28-.02-.04-.05-.04-.09-.05-.27-.08-.52-.24-.77-.37-.13-.07-.27-.1-.41-.15-.02,0-.04-.04-.06-.06-.03-.02-.05-.05-.08-.06-.33-.11-.62-.3-.96-.36-.08-.02-.38-.3-.48-.31-.05,0-.14-.27-.19-.25Z"/></svg>